<?xml version="1.0" encoding="UTF-8" standalone="no"?>
<!-- Created with Inkscape (http://www.inkscape.org/) -->

<svg
   xmlns:dc="http://purl.org/dc/elements/1.1/"
   xmlns:cc="http://creativecommons.org/ns#"
   xmlns:rdf="http://www.w3.org/1999/02/22-rdf-syntax-ns#"
   xmlns:svg="http://www.w3.org/2000/svg"
   xmlns="http://www.w3.org/2000/svg"
   version="1.1"
   width="470.73584"
   height="242.19487"
   id="svg4762">
  <defs
     id="defs4764" />
  <metadata
     id="metadata4767">
    <rdf:RDF>
      <cc:Work
         rdf:about="">
        <dc:format>image/svg+xml</dc:format>
        <dc:type
           rdf:resource="http://purl.org/dc/dcmitype/StillImage" />
        <dc:title></dc:title>
      </cc:Work>
    </rdf:RDF>
  </metadata>
  <g
     transform="translate(-64.632094,-25.550457)"
     id="layer1">
    <rect
       width="137.14285"
       height="187.14285"
       ry="10"
       x="64.732094"
       y="46.249306"
       id="rect3803"
       style="fill:#1a1a1a;fill-opacity:1;stroke:#000000;stroke-width:0.2;stroke-linecap:round;stroke-linejoin:miter;stroke-miterlimit:4;stroke-opacity:1;stroke-dasharray:none" />
    <g
       transform="translate(21.874937,23.887126)"
       id="g3899">
      <rect
         width="110.71429"
         height="161.42857"
         ry="0"
         x="61.130516"
         y="25.270327"
         transform="matrix(0.99876203,0.04974336,-0.04974336,0.99876203,0,0)"
         id="rect3810"
         style="fill:#fbf9f4;fill-opacity:1;stroke:#d5d5d5;stroke-width:1;stroke-linecap:round;stroke-linejoin:miter;stroke-miterlimit:4;stroke-opacity:1;stroke-dasharray:none" />
      <rect
         width="110.71429"
         height="161.42857"
         ry="0"
         x="49.654613"
         y="36.651138"
         transform="matrix(0.99860073,-0.05288272,0.05288272,0.99860073,0,0)"
         id="rect3828"
         style="fill:#fbf9f4;fill-opacity:1;stroke:#d5d5d5;stroke-width:1;stroke-linecap:round;stroke-linejoin:miter;stroke-miterlimit:4;stroke-opacity:1;stroke-dasharray:none" />
      <path
         d="m 61.428571,53.076467 c 0.952381,-0.47619 1.904762,-0.952381 2.857143,-1.428571 0.476191,0 0.976818,0.150584 1.428572,0 2.647933,-0.882645 -0.87068,-0.714286 1.428571,-0.714286 0.714286,0 1.465226,-0.225877 2.142857,0 0.319439,0.10648 0.413117,0.563701 0.714286,0.714286 0.673435,0.336717 1.469422,0.377568 2.142857,0.714286 2.368988,2.368987 -0.673435,-0.336718 1.428572,0.714285 0.301169,0.150585 0.413116,0.563701 0.714285,0.714286 0.212959,0.106479 0.476191,0 0.714286,0 0.238095,0 0.501327,0.106479 0.714286,0 0.602338,-0.301169 0.826233,-1.127402 1.428571,-1.428571 0.190357,-0.09518 3.962577,0 4.285715,0 0.238095,0 0.47619,0 0.714285,0 0.238095,0 0.545927,0.168358 0.714286,0 0.168359,-0.168359 -0.168359,-0.545927 0,-0.714286 0.168359,-0.168359 0.47619,0 0.714286,0 0.952381,0 1.904762,0 2.857143,0 0.238095,0 0.545926,-0.168359 0.714285,0 0.168359,0.168359 -0.168359,0.545927 0,0.714286 0.168359,0.168358 0.476191,0 0.714286,0 0.714286,0 1.43829,0.117427 2.142857,0 0.742679,-0.12378 1.404555,-0.566626 2.142857,-0.714286 0.466943,-0.09339 0.961628,0.09339 1.428572,0 0.738302,-0.147661 1.404555,-0.566625 2.142857,-0.714286 0.671261,-0.134252 3.00021,0.190406 3.571428,0 0.505077,-0.168359 0.912066,-0.58516 1.428576,-0.714286 0.0239,-0.006 2.13906,0.0038 2.14285,0 0.16836,-0.168358 -0.16836,-0.545927 0,-0.714285 0.16836,-0.168359 0.47619,0 0.71429,0 0.23809,0 0.47619,0 0.71428,0 5.44903,0 -0.56346,-0.319439 3.57143,0.714285 0.0239,0.006 2.13907,-0.0038 2.14286,0 0.16836,0.168359 -0.16836,0.545927 0,0.714286 0.16836,0.168359 0.47619,0 0.71429,0 0.23809,0 0.47619,0 0.71428,0 2.14286,0 4.28572,0 6.42857,0 1.42857,0 2.88489,0.280166 4.28572,0 1.0785,-0.215701 4.02421,-2.125301 5,-2.857143 0.53875,-0.404061 0.82623,-1.127402 1.42857,-1.428571 0.21296,-0.10648 0.47619,0 0.71428,0 0.2381,0 0.47619,0 0.71429,0 0.71429,0 1.42857,0 2.14286,0 0.71428,0 1.42857,0 2.14285,0 0.2381,0 0.47619,0 0.71429,0 0.2381,0 0.54593,-0.168359 0.71429,0 0.16835,0.168359 -0.16836,0.545927 0,0.714286 0.16835,0.168358 0.54592,-0.168359 0.71428,0 0.16836,0.168358 -0.16836,0.545927 0,0.714285 0.37646,0.376462 1.05211,0.337824 1.42857,0.714286 0.77722,0.777214 -1.2675,0.933124 0.71429,1.428571 0.69296,0.17324 1.42857,0 2.14286,0 1.03299,0 4.24572,-0.150855 5,0 0.52205,0.104412 0.92349,0.545927 1.42857,0.714286 0.45175,0.150585 0.95238,0 1.42857,0"
         id="path3873"
         style="fill:none;stroke:#000000;stroke-width:1px;stroke-linecap:butt;stroke-linejoin:miter;stroke-opacity:1" />
      <path
         d="m 62.142857,65.93361 c 0.456779,-0.182711 4.594539,-1.918908 5.714286,-2.142857 0.466943,-0.09339 0.966599,0.115493 1.428571,0 0.516501,-0.129125 0.912071,-0.58516 1.428572,-0.714286 0.739922,-0.18498 2.038098,0 2.857143,0 3.23656,0 3.983666,-0.233471 7.142857,0.714286 1.228108,0.368432 2.334425,1.091207 3.571428,1.428571 4.058687,1.106915 8.653342,0.714286 12.857143,0.714286 2.142857,0 4.285713,0 6.428573,0 0.95238,0 1.90476,0 2.85714,0 0.2381,0 0.4833,0.05775 0.71429,0 1.76529,-0.441322 2.09354,-0.68963 3.57143,-1.428571 0.47619,-0.238096 0.91207,-0.585161 1.42857,-0.714286 0.54429,-0.136074 4.26097,0 5,0 0.47619,0 1.00265,-0.212959 1.42857,0 0.21296,0.106479 -0.16836,0.545927 0,0.714286 0.16836,0.168358 0.47619,0 0.71428,0 0.2381,0 0.47619,0 0.71429,0 1.19048,0 2.4165,0.288733 3.57143,0 0.83283,-0.208209 1.37502,-1.044655 2.14286,-1.428572 0.67343,-0.336717 1.46942,-0.377568 2.14285,-0.714285 0.30117,-0.150585 0.41312,-0.563701 0.71429,-0.714286 0.30506,-0.15253 3.28906,0 3.57143,0 1.90476,0 3.80952,0 5.71428,0 0.71429,0 1.42857,0 2.14286,0 0.2381,0 0.50133,-0.10648 0.71429,0 0.30117,0.150585 0.41311,0.563701 0.71428,0.714286 0.95238,0.47619 0.71429,-0.714286 0.71429,0.714285"
         id="path3875"
         style="fill:none;stroke:#000000;stroke-width:1px;stroke-linecap:butt;stroke-linejoin:miter;stroke-opacity:1" />
      <path
         d="m 66.428571,78.076467 c 1.734148,-1.385918 3.866396,0.461973 5.714286,0 0.516501,-0.129125 0.923495,-0.545927 1.428572,-0.714285 0.402999,-0.134333 1.673494,0 2.142857,0 1.123676,0 2.519324,-0.150301 3.571428,0 0.971826,0.138832 1.885318,0.575453 2.857143,0.714285 0.707107,0.101016 1.428572,0 2.142857,0 0.714286,0 1.428572,0 2.142858,0 0.714285,0 1.449898,0.17324 2.142857,0 0.326664,-0.08167 0.413116,-0.563701 0.714285,-0.714285 0.212959,-0.10648 0.476191,0 0.714286,0 0.238095,0 0.476191,0 0.714286,0 1.190476,0 2.380952,0 3.571428,0 1.904762,0 3.809524,0 5.714286,0 0.71429,0 1.42857,0 2.14286,0 0.71428,0 1.44244,-0.140083 2.14285,0 0.52206,0.104411 0.9235,0.545927 1.42858,0.714285 0.45175,0.150585 0.95238,0 1.42857,0 1.19047,0 2.38095,0 3.57143,0 0.95238,0 1.90476,0 2.85714,0 0.71428,0 1.44244,0.140083 2.14286,0 0.52205,-0.104411 0.91207,-0.58516 1.42857,-0.714285 0.69296,-0.17324 1.42857,0 2.14285,0 2.38096,0 4.76191,0 7.14286,0 7.14286,0 14.28572,0 21.42857,0"
         id="path3877"
         style="fill:none;stroke:#000000;stroke-width:1px;stroke-linecap:butt;stroke-linejoin:miter;stroke-opacity:1" />
      <path
         d="M 69.285714,94.505039 C 71.405835,94.893427 73.06333,93.399246 75,93.076467 c 0.704567,-0.117428 1.428572,0 2.142857,0 2.619048,0 5.238095,0 7.857143,0 4.285714,0 8.571429,0 12.857143,0 1.190476,0 2.380957,0 3.571427,0 1.19048,0 2.39015,0.147661 3.57143,0 2.37815,-0.297268 1.66019,-0.791491 3.57143,-1.428571 0.45175,-0.150585 1.09185,0.336717 1.42857,0 0.16836,-0.168359 -0.23099,-0.656539 0,-0.714286 0.92395,-0.230986 1.90476,0 2.85714,0 0.47619,0 0.95238,0 1.42857,0 1.90477,0 3.80953,0 5.71429,0 0.95238,0 1.91433,-0.134687 2.85714,0 6.58114,0.940163 -2.17773,0.714286 4.28572,0.714286 0.71428,0 1.42857,0 2.14285,0 0.2381,0 0.47619,0 0.71429,0 0.2381,0 0.54593,-0.168359 0.71429,0 0.16835,0.168359 -0.16836,0.545927 0,0.714286 0.16835,0.168358 0.47619,0 0.71428,0 1.66667,0 3.33824,-0.127828 5,0 1.44401,0.111077 2.84862,0.534649 4.28572,0.714285 0.23745,0.02968 4.28571,-0.02108 4.28571,0 0,0.238096 -0.47619,0 -0.71429,0"
         id="path3879"
         style="fill:none;stroke:#000000;stroke-width:1px;stroke-linecap:butt;stroke-linejoin:miter;stroke-opacity:1" />
      <path
         d="m 67.142857,110.93361 c 2.861831,-1.71649 4.214978,-1.42857 7.142857,-1.42857 0.952381,0 1.914334,0.13469 2.857143,0 0.745356,-0.10648 1.400178,-0.59051 2.142857,-0.71429 0.704567,-0.11742 1.428572,0 2.142858,0 0.714285,-0.23809 1.404555,-0.56662 2.142857,-0.71428 0.700414,-0.14009 1.428571,0 2.142857,0 1.904762,0 3.809524,0 5.714286,0 5.714285,0 11.428568,0 17.142858,0 2.38095,0 4.7619,0 7.14286,0 0.95238,0 1.90476,0 2.85714,0 0.47619,0 0.9666,0.11549 1.42857,0 0.5165,-0.12913 0.91207,-0.58516 1.42857,-0.71429 0.46197,-0.11549 0.97682,0.15059 1.42857,0 0.31944,-0.10648 0.41312,-0.5637 0.71429,-0.71428 0.21296,-0.10648 0.47619,0 0.71428,0 0.95239,0 1.90477,0 2.85715,0 1.42857,0 2.85714,0 4.28571,0 5.47619,0 10.95238,0 16.42857,0"
         id="path3881"
         style="fill:none;stroke:#000000;stroke-width:1px;stroke-linecap:butt;stroke-linejoin:miter;stroke-opacity:1" />
      <path
         d="m 103.03556,123.02184 c 0,5.7242 0,11.4484 0,17.17259"
         id="path3885"
         style="fill:none;stroke:#000000;stroke-width:1px;stroke-linecap:butt;stroke-linejoin:miter;stroke-opacity:1" />
      <path
         d="m 124.24876,127.06245 c -0.33671,1.68359 -0.67343,3.36718 -1.01015,5.05076 -0.33672,0.67344 -0.82754,1.28987 -1.01015,2.02031 -0.16333,0.65333 0.16333,1.36698 0,2.0203 -0.18261,0.73045 -0.82754,1.28987 -1.01015,2.02031 -0.245,0.97999 0,2.0203 0,3.03046"
         id="path3887"
         style="fill:none;stroke:#000000;stroke-width:1px;stroke-linecap:butt;stroke-linejoin:miter;stroke-opacity:1" />
      <path
         d="m 70.710678,160.39749 c 6.397633,0 12.795266,0 19.192899,0 1.683587,0 3.377472,0.18592 5.050762,0 1.379831,-0.15332 2.679249,-0.73789 4.04061,-1.01016 0.909138,-0.18182 2.101121,0 3.030461,0"
         id="path3891"
         style="fill:none;stroke:#000000;stroke-width:1px;stroke-linecap:butt;stroke-linejoin:miter;stroke-opacity:1" />
      <path
         d="m 111.11678,150.29596 c 0,-1.34687 -0.42592,-2.76286 0,-4.04061 0.78922,-2.36767 3.33498,-2.17257 5.05076,-3.03046 0.42592,-0.21296 0.58424,-0.79719 1.01016,-1.01015 0.30116,-0.15059 0.77205,0.23809 1.01015,0 0.44895,-0.44896 -0.78568,-1.90807 1.01015,-1.01015 1.15806,0.57903 1.40513,2.10769 2.02031,3.03045 1.54712,2.3207 0.57699,-0.43315 3.03045,2.02031 0,2.69374 -0.33671,-0.33672 1.01016,1.01015 0.23809,0.2381 -0.2381,0.77206 0,1.01015 2.0047,2.00471 0.31927,-4.78382 2.0203,2.02031 0.008,0.0338 -0.005,3.02509 0,3.03046 0.2381,0.23809 0.67344,0 1.01015,0"
         id="path3893"
         style="fill:none;stroke:#000000;stroke-width:1px;stroke-linecap:butt;stroke-linejoin:miter;stroke-opacity:1" />
      <path
         d="m 117.1777,149.28581 c -1.28739,4.73029 -1.01016,9.324 -1.01016,14.14213 0,0.57498 -0.0689,3.9372 0,4.04061 0.63697,0.95545 5.15723,1.76211 6.06092,2.02031 1.9735,-0.0428 3.33053,1.44689 5.05076,2.0203 0.56993,0.18998 2.36668,0 3.03046,0 1.68359,0 3.36717,0 5.05076,0 3.03046,0 6.06092,0 9.09137,0"
         id="path3895"
         style="fill:none;stroke:#000000;stroke-width:1px;stroke-linecap:butt;stroke-linejoin:miter;stroke-opacity:1" />
      <path
         d="m 136.37059,158.37718 c 3.03046,0 6.06092,0 9.09138,0 0.67343,0 1.38143,-0.21296 2.0203,0 0.45176,0.15058 0.58424,0.79719 1.01015,1.01015 0.30743,0.15371 2.57553,0 3.03046,0 2.35702,0 4.71405,0 7.07107,0"
         id="path3897"
         style="fill:none;stroke:#000000;stroke-width:1px;stroke-linecap:butt;stroke-linejoin:miter;stroke-opacity:1" />
    </g>
    <path
       d="m 98.343687,46.239805 c 0.37215,9.163174 7.836003,16.437504 17.093753,16.437504 l 34.28125,0 c 9.25775,0 16.75285,-7.27433 17.125,-16.437504 l -68.500003,0 z"
       id="rect3805"
       style="fill:none;stroke:#808080;stroke-width:4.0999999;stroke-linecap:round;stroke-linejoin:miter;stroke-miterlimit:4;stroke-opacity:1;stroke-dasharray:none" />
    <g
       transform="translate(21.874937,23.887126)"
       id="g3852">
      <rect
         width="90.714287"
         height="33.57143"
         ry="10"
         x="-28.165674"
         y="-303.37042"
         transform="matrix(-0.39530219,0.91855113,-0.91855113,-0.39530219,0,0)"
         id="rect3836"
         style="fill:#1c1911;fill-opacity:1;stroke:none" />
      <rect
         width="14.394673"
         height="9.8489876"
         ry="4.9244938"
         x="279.1333"
         y="-28.726665"
         transform="matrix(0.92019619,0.39145749,-0.39145749,0.92019619,0,0)"
         id="rect3838"
         style="fill:#666666;fill-opacity:1;stroke:none" />
      <rect
         width="23.991123"
         height="27.274118"
         ry="0"
         x="274.58759"
         y="-14.837078"
         transform="matrix(0.92019619,0.39145749,-0.39145749,0.92019619,0,0)"
         id="rect3840"
         style="fill:#647865;fill-opacity:1;stroke:none" />
      <text
         x="275.47308"
         y="-3.2997246"
         transform="matrix(0.92019619,0.39145749,-0.39145749,0.92019619,0,0)"
         id="text3842"
         xml:space="preserve"
         style="font-size:9.09822655px;font-style:normal;font-weight:normal;line-height:125%;letter-spacing:0px;word-spacing:0px;fill:#2a4f3a;fill-opacity:1;stroke:none;font-family:Sans"><tspan
           x="275.47308"
           y="-3.2997246"
           id="tspan3844"
           style="font-style:normal;font-variant:normal;font-weight:normal;font-stretch:normal;fill:#2a4f3a;fill-opacity:1;font-family:OCR-B 10 BT;-inkscape-font-specification:OCR-B 10 BT">1:36</tspan></text>
      <path
         d="m 241.17392,73.650635 a 5.4295697,4.9244938 0 1 1 -10.85914,0 5.4295697,4.9244938 0 1 1 10.85914,0 z"
         transform="matrix(0.92019619,0.39145749,-0.39145749,0.92019619,69.055368,-16.974422)"
         id="path3846"
         style="fill:#4d4d4d;fill-opacity:1;stroke:none" />
      <rect
         width="7.0710678"
         height="3.7880721"
         x="274.84015"
         y="15.720043"
         transform="matrix(0.92019619,0.39145749,-0.39145749,0.92019619,0,0)"
         id="rect3848"
         style="fill:#4d4d4d;fill-opacity:1;stroke:none" />
      <rect
         width="7.0710678"
         height="3.7880721"
         x="284.84015"
         y="15.720043"
         transform="matrix(0.92019619,0.39145749,-0.39145749,0.92019619,0,0)"
         id="rect3850"
         style="fill:#4d4d4d;fill-opacity:1;stroke:none" />
    </g>
    <rect
       width="110.71429"
       height="161.42857"
       ry="0"
       x="248.83688"
       y="197.81161"
       transform="matrix(0.9083073,-0.41830353,0.41830353,0.9083073,0,0)"
       id="rect4012"
       style="fill:#fbf9f4;fill-opacity:1;stroke:#d5d5d5;stroke-width:1;stroke-linecap:round;stroke-linejoin:miter;stroke-miterlimit:4;stroke-opacity:1;stroke-dasharray:none" />
    <rect
       width="110.71429"
       height="161.42857"
       ry="0"
       x="376.50165"
       y="51.888367"
       transform="matrix(0.99860073,-0.05288272,0.05288272,0.99860073,0,0)"
       id="rect3999"
       style="fill:#fbf9f4;fill-opacity:1;stroke:#d5d5d5;stroke-width:1;stroke-linecap:round;stroke-linejoin:miter;stroke-miterlimit:4;stroke-opacity:1;stroke-dasharray:none" />
    <g
       transform="translate(619.0178,9.6014157)"
       id="g3985">
      <rect
         width="110.71429"
         height="161.42857"
         ry="0"
         x="-261.10959"
         y="23.68116"
         transform="matrix(0.99860073,-0.05288272,0.05288272,0.99860073,0,0)"
         id="rect3918"
         style="fill:#fbf9f4;fill-opacity:1;stroke:#d5d5d5;stroke-width:1;stroke-linecap:round;stroke-linejoin:miter;stroke-miterlimit:4;stroke-opacity:1;stroke-dasharray:none" />
      <path
         d="m -249.58669,56.55869 c 0.95238,-0.47619 1.90476,-0.95238 2.85714,-1.42857 0.4762,0 0.97682,0.15058 1.42858,0 2.64793,-0.88265 -0.87068,-0.71429 1.42857,-0.71429 0.71428,0 1.46522,-0.22588 2.14285,0 0.31944,0.10648 0.41312,0.5637 0.71429,0.71429 0.67344,0.33671 1.46942,0.37756 2.14286,0.71428 2.36899,2.36899 -0.67344,-0.33672 1.42857,0.71429 0.30117,0.15058 0.41312,0.5637 0.71428,0.71428 0.21296,0.10648 0.4762,0 0.71429,0 0.2381,0 0.50133,0.10648 0.71429,0 0.60233,-0.30117 0.82623,-1.1274 1.42857,-1.42857 0.19035,-0.0952 3.96257,0 4.28571,0 0.2381,0 0.47619,0 0.71429,0 0.23809,0 0.54592,0.16836 0.71428,0 0.16836,-0.16836 -0.16836,-0.54592 0,-0.71428 0.16836,-0.16836 0.47619,0 0.71429,0 0.95238,0 1.90476,0 2.85714,0 0.2381,0 0.54593,-0.16836 0.71429,0 0.16836,0.16836 -0.16836,0.54592 0,0.71428 0.16836,0.16836 0.47619,0 0.71428,0 0.71429,0 1.43829,0.11743 2.14286,0 0.74268,-0.12378 1.40456,-0.56662 2.14286,-0.71428 0.46694,-0.0934 0.96163,0.0934 1.42857,0 0.7383,-0.14766 1.40455,-0.56663 2.14286,-0.71429 0.67126,-0.13425 3.00021,0.19041 3.57142,0 0.50508,-0.16836 0.91207,-0.58516 1.42858,-0.71429 0.0239,-0.006 2.13906,0.004 2.14285,0 0.16836,-0.16835 -0.16836,-0.54592 0,-0.71428 0.16836,-0.16836 0.47619,0 0.71429,0 0.23809,0 0.47619,0 0.71428,0 5.44903,0 -0.56346,-0.31944 3.57143,0.71428 0.0239,0.006 2.13907,-0.004 2.14286,0 0.16836,0.16836 -0.16836,0.54593 0,0.71429 0.16836,0.16836 0.47619,0 0.71429,0 0.23809,0 0.47619,0 0.71428,0 2.14286,0 4.28572,0 6.42857,0 1.42857,0 2.88489,0.28017 4.28572,0 1.0785,-0.2157 4.02421,-2.1253 5,-2.85714 0.53875,-0.40406 0.82623,-1.1274 1.42857,-1.42857 0.21296,-0.10648 0.47619,0 0.71428,0 0.2381,0 0.47619,0 0.71429,0 0.71429,0 1.42857,0 2.14286,0 0.71428,0 1.42857,0 2.14285,0 0.2381,0 0.47619,0 0.71429,0 0.2381,0 0.54593,-0.16836 0.71429,0 0.16835,0.16836 -0.16836,0.54592 0,0.71428 0.16835,0.16836 0.54592,-0.16836 0.71428,0 0.16836,0.16836 -0.16836,0.54593 0,0.71429 0.37646,0.37646 1.05211,0.33782 1.42857,0.71428 0.77722,0.77722 -1.2675,0.93313 0.71429,1.42857 0.69296,0.17324 1.42857,0 2.14286,0 1.03299,0 4.24572,-0.15085 5,0 0.52205,0.10442 0.92349,0.54593 1.42857,0.71429 0.45175,0.15058 0.95238,0 1.42857,0"
         id="path3920"
         style="fill:none;stroke:#000000;stroke-width:1px;stroke-linecap:butt;stroke-linejoin:miter;stroke-opacity:1" />
      <path
         d="m -248.8724,69.41583 c 0.45678,-0.18271 4.59454,-1.91891 5.71428,-2.14286 0.46695,-0.0934 0.9666,0.1155 1.42857,0 0.51651,-0.12912 0.91208,-0.58516 1.42858,-0.71428 0.73992,-0.18498 2.03809,0 2.85714,0 3.23656,0 3.98367,-0.23347 7.14286,0.71428 1.2281,0.36844 2.33442,1.09121 3.57142,1.42857 4.05869,1.10692 8.65335,0.71429 12.85715,0.71429 2.14285,0 4.28571,0 6.42857,0 0.95238,0 1.90476,0 2.85714,0 0.2381,0 0.4833,0.0577 0.71429,0 1.76529,-0.44132 2.09354,-0.68963 3.57143,-1.42857 0.47619,-0.2381 0.91207,-0.58516 1.42857,-0.71429 0.54429,-0.13607 4.26097,0 5,0 0.47619,0 1.00265,-0.21296 1.42857,0 0.21296,0.10648 -0.16836,0.54593 0,0.71429 0.16836,0.16836 0.47619,0 0.71428,0 0.2381,0 0.47619,0 0.71429,0 1.19048,0 2.4165,0.28873 3.57143,0 0.83283,-0.20821 1.37502,-1.04466 2.14286,-1.42857 0.67343,-0.33672 1.46942,-0.37757 2.14285,-0.71429 0.30117,-0.15058 0.41312,-0.5637 0.71429,-0.71428 0.30506,-0.15253 3.28906,0 3.57143,0 1.90476,0 3.80952,0 5.71428,0 0.71429,0 1.42857,0 2.14286,0 0.2381,0 0.50133,-0.10648 0.71429,0 0.30117,0.15058 0.41311,0.5637 0.71428,0.71428 0.95238,0.47619 0.71429,-0.71428 0.71429,0.71429"
         id="path3922"
         style="fill:none;stroke:#000000;stroke-width:1px;stroke-linecap:butt;stroke-linejoin:miter;stroke-opacity:1" />
      <path
         d="m -244.58669,81.55869 c 1.73415,-1.38592 3.8664,0.46197 5.71429,0 0.5165,-0.12913 0.92349,-0.54593 1.42857,-0.71429 0.403,-0.13433 1.67349,0 2.14286,0 1.12367,0 2.51932,-0.1503 3.57142,0 0.97183,0.13883 1.88532,0.57545 2.85715,0.71429 0.7071,0.10101 1.42857,0 2.14285,0 0.71429,0 1.42858,0 2.14286,0 0.71429,0 1.4499,0.17324 2.14286,0 0.32666,-0.0817 0.41312,-0.5637 0.71428,-0.71429 0.21296,-0.10648 0.4762,0 0.71429,0 0.2381,0 0.47619,0 0.71429,0 1.19047,0 2.38095,0 3.57142,0 1.90477,0 3.80953,0 5.71429,0 0.71429,0 1.42857,0 2.14286,0 0.71428,0 1.44244,-0.14008 2.14285,0 0.52206,0.10441 0.9235,0.54593 1.42858,0.71429 0.45175,0.15058 0.95238,0 1.42857,0 1.19047,0 2.38095,0 3.57143,0 0.95238,0 1.90476,0 2.85714,0 0.71428,0 1.44244,0.14008 2.14286,0 0.52205,-0.10441 0.91207,-0.58516 1.42857,-0.71429 0.69296,-0.17324 1.42857,0 2.14285,0 2.38096,0 4.76191,0 7.14286,0 7.14286,0 14.28572,0 21.42857,0"
         id="path3924"
         style="fill:none;stroke:#000000;stroke-width:1px;stroke-linecap:butt;stroke-linejoin:miter;stroke-opacity:1" />
      <path
         d="m -241.72955,97.98726 c 2.12013,0.38839 3.77762,-1.10579 5.71429,-1.42857 0.70457,-0.11743 1.42857,0 2.14286,0 2.61905,0 5.23809,0 7.85714,0 4.28571,0 8.57143,0 12.85714,0 1.19048,0 2.38096,0 3.57143,0 1.19048,0 2.39015,0.14766 3.57143,0 2.37815,-0.29727 1.66019,-0.79149 3.57143,-1.42857 0.45175,-0.15059 1.09185,0.33671 1.42857,0 0.16836,-0.16836 -0.23099,-0.65654 0,-0.71429 0.92395,-0.23099 1.90476,0 2.85714,0 0.47619,0 0.95238,0 1.42857,0 1.90477,0 3.80953,0 5.71429,0 0.95238,0 1.91433,-0.13469 2.85714,0 6.58114,0.94016 -2.17773,0.71429 4.28572,0.71429 0.71428,0 1.42857,0 2.14285,0 0.2381,0 0.47619,0 0.71429,0 0.2381,0 0.54593,-0.16836 0.71429,0 0.16835,0.16835 -0.16836,0.54592 0,0.71428 0.16835,0.16836 0.47619,0 0.71428,0 1.66667,0 3.33824,-0.12783 5,0 1.44401,0.11108 2.84862,0.53465 4.28572,0.71429 0.23745,0.0297 4.28571,-0.0211 4.28571,0 0,0.23809 -0.47619,0 -0.71429,0"
         id="path3926"
         style="fill:none;stroke:#000000;stroke-width:1px;stroke-linecap:butt;stroke-linejoin:miter;stroke-opacity:1" />
      <path
         d="m -243.8724,114.41583 c 2.86183,-1.71649 4.21498,-1.42857 7.14285,-1.42857 0.95239,0 1.91434,0.13469 2.85715,0 0.74535,-0.10648 1.40018,-0.59051 2.14285,-0.71429 0.70457,-0.11742 1.42858,0 2.14286,0 0.71429,-0.23809 1.40456,-0.56662 2.14286,-0.71428 0.70041,-0.14009 1.42857,0 2.14286,0 1.90476,0 3.80952,0 5.71428,0 5.71429,0 11.42857,0 17.14286,0 2.38095,0 4.7619,0 7.14286,0 0.95238,0 1.90476,0 2.85714,0 0.47619,0 0.9666,0.11549 1.42857,0 0.5165,-0.12913 0.91207,-0.58516 1.42857,-0.71429 0.46197,-0.11549 0.97682,0.15059 1.42857,0 0.31944,-0.10648 0.41312,-0.5637 0.71429,-0.71428 0.21296,-0.10648 0.47619,0 0.71428,0 0.95239,0 1.90477,0 2.85715,0 1.42857,0 2.85714,0 4.28571,0 5.47619,0 10.95238,0 16.42857,0"
         id="path3928"
         style="fill:none;stroke:#000000;stroke-width:1px;stroke-linecap:butt;stroke-linejoin:miter;stroke-opacity:1" />
      <path
         d="m -207.9797,126.50406 c 0,5.7242 0,11.4484 0,17.17259"
         id="path3930"
         style="fill:none;stroke:#000000;stroke-width:1px;stroke-linecap:butt;stroke-linejoin:miter;stroke-opacity:1" />
      <path
         d="m -186.7665,130.54467 c -0.33671,1.68359 -0.67343,3.36718 -1.01015,5.05076 -0.33672,0.67344 -0.82754,1.28987 -1.01015,2.02031 -0.16333,0.65333 0.16333,1.36698 0,2.0203 -0.18261,0.73045 -0.82754,1.28987 -1.01015,2.02031 -0.245,0.97999 0,2.0203 0,3.03046"
         id="path3932"
         style="fill:none;stroke:#000000;stroke-width:1px;stroke-linecap:butt;stroke-linejoin:miter;stroke-opacity:1" />
      <path
         d="m -240.30458,163.87971 c 6.39763,0 12.79526,0 19.1929,0 1.68358,0 3.37747,0.18592 5.05076,0 1.37983,-0.15332 2.67925,-0.73789 4.04061,-1.01016 0.90914,-0.18182 2.10112,0 3.03046,0"
         id="path3934"
         style="fill:none;stroke:#000000;stroke-width:1px;stroke-linecap:butt;stroke-linejoin:miter;stroke-opacity:1" />
      <path
         d="m -199.89848,153.77818 c 0,-1.34687 -0.42592,-2.76286 0,-4.04061 0.78922,-2.36767 3.33498,-2.17257 5.05076,-3.03046 0.42592,-0.21296 0.58424,-0.79719 1.01016,-1.01015 0.30116,-0.15059 0.77205,0.23809 1.01015,0 0.44895,-0.44896 -0.78568,-1.90807 1.01015,-1.01015 1.15806,0.57903 1.40513,2.10769 2.02031,3.03045 1.54712,2.3207 0.57699,-0.43315 3.03045,2.02031 0,2.69374 -0.33671,-0.33672 1.01016,1.01015 0.23809,0.2381 -0.2381,0.77206 0,1.01015 2.0047,2.00471 0.31927,-4.78382 2.0203,2.02031 0.008,0.0338 -0.005,3.02509 0,3.03046 0.2381,0.23809 0.67344,0 1.01015,0"
         id="path3936"
         style="fill:none;stroke:#000000;stroke-width:1px;stroke-linecap:butt;stroke-linejoin:miter;stroke-opacity:1" />
      <path
         d="m -193.83756,152.76803 c -1.28739,4.73029 -1.01016,9.324 -1.01016,14.14213 0,0.57498 -0.0689,3.9372 0,4.04061 0.63697,0.95545 5.15723,1.76211 6.06092,2.02031 1.9735,-0.0428 3.33053,1.44689 5.05076,2.0203 0.56993,0.18998 2.36668,0 3.03046,0 1.68359,0 3.36717,0 5.05076,0 3.03046,0 6.06092,0 9.09137,0"
         id="path3938"
         style="fill:none;stroke:#000000;stroke-width:1px;stroke-linecap:butt;stroke-linejoin:miter;stroke-opacity:1" />
      <path
         d="m -174.64467,161.8594 c 3.03046,0 6.06092,0 9.09138,0 0.67343,0 1.38143,-0.21296 2.0203,0 0.45176,0.15058 0.58424,0.79719 1.01015,1.01015 0.30743,0.15371 2.57553,0 3.03046,0 2.35702,0 4.71405,0 7.07107,0"
         id="path3940"
         style="fill:none;stroke:#000000;stroke-width:1px;stroke-linecap:butt;stroke-linejoin:miter;stroke-opacity:1" />
    </g>
    <g
       transform="matrix(0.97493573,0.22248669,-0.22248669,0.97493573,575.25172,10.385036)"
       id="g4001">
      <rect
         width="110.71429"
         height="161.42857"
         ry="0"
         x="-133.81972"
         y="103.25492"
         transform="matrix(0.99860073,-0.05288272,0.05288272,0.99860073,0,0)"
         id="rect3955"
         style="fill:#fbf9f4;fill-opacity:1;stroke:#d5d5d5;stroke-width:1;stroke-linecap:round;stroke-linejoin:miter;stroke-miterlimit:4;stroke-opacity:1;stroke-dasharray:none" />
      <path
         d="m -118.26686,129.28967 c 0.95238,-0.47619 1.90476,-0.95238 2.85714,-1.42857 0.4762,0 0.97682,0.15058 1.42858,0 2.64793,-0.88265 -0.87068,-0.71429 1.42857,-0.71429 0.71428,0 1.46522,-0.22588 2.14285,0 0.31944,0.10648 0.41312,0.5637 0.71429,0.71429 0.67344,0.33671 1.46942,0.37756 2.14286,0.71428 2.36899,2.36899 -0.67344,-0.33672 1.42857,0.71429 0.30117,0.15058 0.41312,0.5637 0.71428,0.71428 0.21296,0.10648 0.4762,0 0.71429,0 0.2381,0 0.50133,0.10648 0.71429,0 0.60233,-0.30117 0.82623,-1.1274 1.42857,-1.42857 0.19035,-0.0952 3.962571,0 4.285711,0 0.2381,0 0.47619,0 0.71429,0 0.23809,0 0.54592,0.16836 0.71428,0 0.16836,-0.16836 -0.16836,-0.54592 0,-0.71428 0.16836,-0.16836 0.47619,0 0.71429,0 0.95238,0 1.90476,0 2.85714,0 0.2381,0 0.54593,-0.16836 0.71429,0 0.16836,0.16836 -0.16836,0.54592 0,0.71428 0.16836,0.16836 0.47619,0 0.71428,0 0.71429,0 1.43829,0.11743 2.14286,0 0.74268,-0.12378 1.40456,-0.56662 2.14286,-0.71428 0.46694,-0.0934 0.96163,0.0934 1.42857,0 0.7383,-0.14766 1.40455,-0.56663 2.14286,-0.71429 0.67126,-0.13425 3.00021,0.19041 3.57142,0 0.50508,-0.16836 0.91207,-0.58516 1.42858,-0.71429 0.0239,-0.006 2.13906,0.004 2.14285,0 0.16836,-0.16835 -0.16836,-0.54592 0,-0.71428 0.16836,-0.16836 0.47619,0 0.71429,0 0.23809,0 0.47619,0 0.71428,0 5.44903,0 -0.56346,-0.31944 3.57143,0.71428 0.0239,0.006 2.13907,-0.004 2.14286,0 0.16836,0.16836 -0.16836,0.54593 0,0.71429 0.16836,0.16836 0.47619,0 0.71429,0 0.23809,0 0.47619,0 0.71428,0 2.14286,0 4.28572,0 6.42857,0 1.42857,0 2.88489,0.28017 4.28572,0 1.0785,-0.2157 4.02421,-2.1253 5,-2.85714 0.53875,-0.40406 0.82623,-1.1274 1.42857,-1.42857 0.21296,-0.10648 0.47619,0 0.71428,0 0.2381,0 0.47619,0 0.71429,0 0.71429,0 1.42857,0 2.14286,0 0.71428,0 1.42857,0 2.14285,0 0.2381,0 0.47619,0 0.71429,0 0.2381,0 0.54593,-0.16836 0.71429,0 0.16835,0.16836 -0.16836,0.54592 0,0.71428 0.16835,0.16836 0.54592,-0.16836 0.71428,0 0.16836,0.16836 -0.16836,0.54593 0,0.71429 0.37646,0.37646 1.05211,0.33782 1.42857,0.71428 0.77722,0.77722 -1.2675,0.93313 0.71429,1.42857 0.69296,0.17324 1.42857,0 2.14286,0 1.03299,0 4.24572,-0.15085 5,0 0.52205,0.10442 0.92349,0.54593 1.42857,0.71429 0.45175,0.15058 0.95238,0 1.42857,0"
         id="path3957"
         style="fill:none;stroke:#000000;stroke-width:1px;stroke-linecap:butt;stroke-linejoin:miter;stroke-opacity:1" />
      <path
         d="m -117.55257,142.14681 c 0.45678,-0.18271 4.59454,-1.91891 5.71428,-2.14286 0.46695,-0.0934 0.9666,0.1155 1.42857,0 0.51651,-0.12912 0.91208,-0.58516 1.42858,-0.71428 0.73992,-0.18498 2.03809,0 2.85714,0 3.23656,0 3.98367,-0.23347 7.142861,0.71428 1.2281,0.36844 2.33442,1.09121 3.57142,1.42857 4.05869,1.10692 8.65335,0.71429 12.85715,0.71429 2.14285,0 4.28571,0 6.42857,0 0.95238,0 1.90476,0 2.85714,0 0.2381,0 0.4833,0.0577 0.71429,0 1.76529,-0.44132 2.09354,-0.68963 3.57143,-1.42857 0.47619,-0.2381 0.91207,-0.58516 1.42857,-0.71429 0.54429,-0.13607 4.26097,0 5,0 0.47619,0 1.00265,-0.21296 1.42857,0 0.21296,0.10648 -0.16836,0.54593 0,0.71429 0.16836,0.16836 0.47619,0 0.71428,0 0.2381,0 0.47619,0 0.71429,0 1.19048,0 2.4165,0.28873 3.57143,0 0.83283,-0.20821 1.37502,-1.04466 2.14286,-1.42857 0.67343,-0.33672 1.46942,-0.37757 2.14285,-0.71429 0.30117,-0.15058 0.41312,-0.5637 0.71429,-0.71428 0.30506,-0.15253 3.28906,0 3.57143,0 1.90476,0 3.80952,0 5.71428,0 0.71429,0 1.42857,0 2.14286,0 0.2381,0 0.50133,-0.10648 0.71429,0 0.30117,0.15058 0.41311,0.5637 0.71428,0.71428 0.95238,0.47619 0.71429,-0.71428 0.71429,0.71429"
         id="path3959"
         style="fill:none;stroke:#000000;stroke-width:1px;stroke-linecap:butt;stroke-linejoin:miter;stroke-opacity:1" />
      <path
         d="m -113.26686,154.28967 c 1.73415,-1.38592 3.8664,0.46197 5.71429,0 0.5165,-0.12913 0.92349,-0.54593 1.42857,-0.71429 0.403,-0.13433 1.67349,0 2.14286,0 1.12367,0 2.51932,-0.1503 3.57142,0 0.971831,0.13883 1.885321,0.57545 2.857151,0.71429 0.7071,0.10101 1.42857,0 2.14285,0 0.71429,0 1.42858,0 2.14286,0 0.71429,0 1.4499,0.17324 2.14286,0 0.32666,-0.0817 0.41312,-0.5637 0.71428,-0.71429 0.21296,-0.10648 0.4762,0 0.71429,0 0.2381,0 0.47619,0 0.71429,0 1.19047,0 2.38095,0 3.57142,0 1.90477,0 3.80953,0 5.71429,0 0.71429,0 1.42857,0 2.14286,0 0.71428,0 1.44244,-0.14008 2.14285,0 0.52206,0.10441 0.9235,0.54593 1.42858,0.71429 0.45175,0.15058 0.95238,0 1.42857,0 1.19047,0 2.38095,0 3.57143,0 0.95238,0 1.90476,0 2.85714,0 0.71428,0 1.44244,0.14008 2.14286,0 0.52205,-0.10441 0.91207,-0.58516 1.42857,-0.71429 0.69296,-0.17324 1.42857,0 2.14285,0 2.38096,0 4.76191,0 7.14286,0 7.14286,0 14.28572,0 21.42857,0"
         id="path3961"
         style="fill:none;stroke:#000000;stroke-width:1px;stroke-linecap:butt;stroke-linejoin:miter;stroke-opacity:1" />
      <path
         d="m -110.40972,170.71824 c 2.12013,0.38839 3.77762,-1.10579 5.71429,-1.42857 0.70457,-0.11743 1.42857,0 2.14286,0 2.619051,0 5.238091,0 7.857141,0 4.28571,0 8.57143,0 12.85714,0 1.19048,0 2.38096,0 3.57143,0 1.19048,0 2.39015,0.14766 3.57143,0 2.37815,-0.29727 1.66019,-0.79149 3.57143,-1.42857 0.45175,-0.15059 1.09185,0.33671 1.42857,0 0.16836,-0.16836 -0.23099,-0.65654 0,-0.71429 0.92395,-0.23099 1.90476,0 2.85714,0 0.47619,0 0.95238,0 1.42857,0 1.90477,0 3.80953,0 5.71429,0 0.95238,0 1.91433,-0.13469 2.85714,0 6.58114,0.94016 -2.17773,0.71429 4.28572,0.71429 0.71428,0 1.42857,0 2.14285,0 0.2381,0 0.47619,0 0.71429,0 0.2381,0 0.54593,-0.16836 0.71429,0 0.16835,0.16835 -0.16836,0.54592 0,0.71428 0.16835,0.16836 0.47619,0 0.71428,0 1.66667,0 3.33824,-0.12783 5,0 1.44401,0.11108 2.84862,0.53465 4.28572,0.71429 0.23745,0.0297 4.28571,-0.0211 4.28571,0 0,0.23809 -0.47619,0 -0.71429,0"
         id="path3963"
         style="fill:none;stroke:#000000;stroke-width:1px;stroke-linecap:butt;stroke-linejoin:miter;stroke-opacity:1" />
      <path
         d="m -112.55257,187.14681 c 2.86183,-1.71649 4.21498,-1.42857 7.14285,-1.42857 0.95239,0 1.91434,0.13469 2.85715,0 0.74535,-0.10648 1.40018,-0.59051 2.14285,-0.71429 0.704571,-0.11742 1.428581,0 2.142861,0 0.71429,-0.23809 1.40456,-0.56662 2.14286,-0.71428 0.70041,-0.14009 1.42857,0 2.14286,0 1.90476,0 3.80952,0 5.71428,0 5.71429,0 11.42857,0 17.14286,0 2.38095,0 4.7619,0 7.14286,0 0.95238,0 1.90476,0 2.85714,0 0.47619,0 0.9666,0.11549 1.42857,0 0.5165,-0.12913 0.91207,-0.58516 1.42857,-0.71429 0.46197,-0.11549 0.97682,0.15059 1.42857,0 0.31944,-0.10648 0.41312,-0.5637 0.71429,-0.71428 0.21296,-0.10648 0.47619,0 0.71428,0 0.95239,0 1.90477,0 2.85715,0 1.42857,0 2.85714,0 4.28571,0 5.47619,0 10.95238,0 16.42857,0"
         id="path3965"
         style="fill:none;stroke:#000000;stroke-width:1px;stroke-linecap:butt;stroke-linejoin:miter;stroke-opacity:1" />
      <path
         d="m -108.2161,203.78714 c 1.73415,-1.38592 3.8664,0.46197 5.71429,0 0.5165,-0.12913 0.92349,-0.54593 1.42857,-0.71429 0.403,-0.13433 1.673493,0 2.142863,0 1.12367,0 2.51932,-0.1503 3.57142,0 0.971831,0.13883 1.885321,0.57545 2.857151,0.71429 0.7071,0.10101 1.42857,0 2.14285,0 0.71429,0 1.42858,0 2.14286,0 0.71429,0 1.4499,0.17324 2.14286,0 0.32666,-0.0817 0.41312,-0.5637 0.71428,-0.71429 0.21296,-0.10648 0.4762,0 0.71429,0 0.2381,0 0.47619,0 0.71429,0 1.19047,0 2.38095,0 3.57142,0 1.90477,0 3.80953,0 5.71429,0 0.71429,0 1.42857,0 2.14286,0 0.71428,0 1.44244,-0.14008 2.14285,0 0.52206,0.10441 0.9235,0.54593 1.42858,0.71429 0.45175,0.15058 0.95238,0 1.42857,0 1.19047,0 2.38095,0 3.57143,0 0.95238,0 1.90476,0 2.85714,0 0.71428,0 1.44244,0.14008 2.14286,0 0.52205,-0.10441 0.91207,-0.58516 1.42857,-0.71429 0.69296,-0.17324 1.42857,0 2.14285,0 2.38096,0 4.76191,0 7.14286,0 7.14286,0 14.28572,0 21.42857,0"
         id="path3979"
         style="fill:none;stroke:#000000;stroke-width:1px;stroke-linecap:butt;stroke-linejoin:miter;stroke-opacity:1" />
      <path
         d="m -105.35896,220.21571 c 2.12013,0.38839 3.77762,-1.10579 5.714293,-1.42857 0.70457,-0.11743 1.42857,0 2.14286,0 2.619051,0 5.238091,0 7.857141,0 4.28571,0 8.57143,0 12.85714,0 1.19048,0 2.38096,0 3.57143,0 1.19048,0 2.39015,0.14766 3.57143,0 2.37815,-0.29727 1.66019,-0.79149 3.57143,-1.42857 0.45175,-0.15059 1.09185,0.33671 1.42857,0 0.16836,-0.16836 -0.23099,-0.65654 0,-0.71429 0.92395,-0.23099 1.90476,0 2.85714,0 0.47619,0 0.95238,0 1.42857,0 1.90477,0 3.80953,0 5.71429,0 0.95238,0 1.91433,-0.13469 2.85714,0 6.58114,0.94016 -2.17773,0.71429 4.28572,0.71429 0.71428,0 1.42857,0 2.14285,0 0.2381,0 0.47619,0 0.71429,0 0.2381,0 0.54593,-0.16836 0.71429,0 0.16835,0.16835 -0.16836,0.54592 0,0.71428 0.16835,0.16836 0.47619,0 0.71428,0 1.66667,0 3.33824,-0.12783 5,0 1.44401,0.11108 2.84862,0.53465 4.28572,0.71429 0.23745,0.0297 4.28571,-0.0211 4.28571,0 0,0.23809 -0.47619,0 -0.71429,0"
         id="path3981"
         style="fill:none;stroke:#000000;stroke-width:1px;stroke-linecap:butt;stroke-linejoin:miter;stroke-opacity:1" />
      <path
         d="m -107.50181,236.64428 c 2.86183,-1.71649 4.21498,-1.42857 7.14285,-1.42857 0.952393,0 1.914343,0.13469 2.857153,0 0.74535,-0.10648 1.40018,-0.59051 2.14285,-0.71429 0.704571,-0.11742 1.428581,0 2.142861,0 0.71429,-0.23809 1.40456,-0.56662 2.14286,-0.71428 0.70041,-0.14009 1.42857,0 2.14286,0 1.90476,0 3.80952,0 5.71428,0 5.71429,0 11.42857,0 17.14286,0 2.38095,0 4.7619,0 7.14286,0 0.95238,0 1.90476,0 2.85714,0 0.47619,0 0.9666,0.11549 1.42857,0 0.5165,-0.12913 0.91207,-0.58516 1.42857,-0.71429 0.46197,-0.11549 0.97682,0.15059 1.42857,0 0.31944,-0.10648 0.41312,-0.5637 0.71429,-0.71428 0.21296,-0.10648 0.47619,0 0.71428,0 0.95239,0 1.90477,0 2.85715,0 1.42857,0 2.85714,0 4.28571,0 5.47619,0 10.95238,0 16.42857,0"
         id="path3983"
         style="fill:none;stroke:#000000;stroke-width:1px;stroke-linecap:butt;stroke-linejoin:miter;stroke-opacity:1" />
    </g>
  </g>
</svg>
