<?xml version="1.0" encoding="UTF-8" standalone="no"?>
<!-- Generator: Adobe Illustrator 18.0.0, SVG Export Plug-In . SVG Version: 6.00 Build 0)  -->

<svg
   xmlns:dc="http://purl.org/dc/elements/1.1/"
   xmlns:cc="http://creativecommons.org/ns#"
   xmlns:rdf="http://www.w3.org/1999/02/22-rdf-syntax-ns#"
   xmlns:svg="http://www.w3.org/2000/svg"
   xmlns="http://www.w3.org/2000/svg"
   xmlns:sodipodi="http://sodipodi.sourceforge.net/DTD/sodipodi-0.dtd"
   xmlns:inkscape="http://www.inkscape.org/namespaces/inkscape"
   version="1.1"
   x="0px"
   y="0px"
   viewBox="0 0 1052.4 744.1"
   enable-background="new 0 0 1052.4 744.1"
   xml:space="preserve"
   id="svg2"
   inkscape:version="0.91 r13725"
   sodipodi:docname="U2_GoodBadTime_Diagramm.svg"><metadata
     id="metadata133"><rdf:RDF><cc:Work
         rdf:about=""><dc:format>image/svg+xml</dc:format><dc:type
           rdf:resource="http://purl.org/dc/dcmitype/StillImage" /></cc:Work></rdf:RDF></metadata><defs
     id="defs131" /><sodipodi:namedview
     pagecolor="#ffffff"
     bordercolor="#666666"
     borderopacity="1"
     objecttolerance="10"
     gridtolerance="10"
     guidetolerance="10"
     inkscape:pageopacity="0"
     inkscape:pageshadow="2"
     inkscape:window-width="1920"
     inkscape:window-height="1056"
     id="namedview129"
     showgrid="false"
     inkscape:zoom="0.63432336"
     inkscape:cx="910.63085"
     inkscape:cy="305.04889"
     inkscape:window-x="0"
     inkscape:window-y="24"
     inkscape:window-maximized="1"
     inkscape:current-layer="layer3" /><g
     id="Layer_2" /><g
     inkscape:groupmode="layer"
     id="layer1"
     inkscape:label="template"
     style="display:inline"
     sodipodi:insensitive="true"><g
       id="g4310"><g
         transform="translate(0,6)"
         inkscape:version="0.48.4 r9939"
         sodipodi:docname="GutSchlechtZeit_Diagrammsvg.svg"
         id="g4"><path
           style="fill:none"
           inkscape:connector-curvature="0"
           id="path6"
           d="" /><path
           style="stroke:#000000"
           inkscape:connector-curvature="0"
           d="m 54.5,74.3 4,4 -4,-14 -4,14 4,-4 z"
           id="path3759" /><path
           style="stroke:#000000"
           inkscape:connector-curvature="0"
           d="m 54.5,657.3 -4,-4 4,14 4,-14 -4,4 z"
           id="path3762" /><path
           style="stroke:#000000"
           d="M 54.5,667.3"
           inkscape:connector-curvature="0"
           id="path2985" /><text
           style="font-size:40px;font-family:MyriadPro-Regular"
           id="text11"
           font-size="40"
           transform="translate(34.3452,55.1705)">☺</text>
<text
           style="font-size:40px;font-family:MyriadPro-Regular"
           id="text13"
           font-size="40"
           transform="translate(34.3452,705.7086)">☹</text>
<path
           style="fill:none"
           inkscape:connector-curvature="0"
           id="path15"
           d="" /><path
           style="stroke:#000000"
           inkscape:connector-curvature="0"
           d="m 1008.2,366.3 -4,4 14,-4 -14,-4 4,4 z"
           id="path3762_1_" /><path
           style="stroke:#000000"
           d="M 1018.2,366.3"
           sodipodi:nodetypes="cc"
           inkscape:connector-curvature="0"
           id="path4399" /><text
           style="font-size:26.12479973px;font-family:Calibri"
           id="text19"
           font-size="26.1248"
           transform="translate(1004.2336,404.1306)">Zeit</text>
<line
           style="fill:none;stroke:#000000;stroke-miterlimit:10"
           id="line21"
           y2="366.29999"
           x2="54.5"
           y1="366.29999"
           x1="1008.2"
           stroke-miterlimit="10" /></g><path
         inkscape:connector-curvature="0"
         id="path4308"
         d="m 53.600422,82.45942 0,583.29872"
         style="fill:none;fill-rule:evenodd;stroke:#000000;stroke-width:1px;stroke-linecap:butt;stroke-linejoin:miter;stroke-opacity:1" /></g></g><g
     inkscape:groupmode="layer"
     id="layer2"
     inkscape:label="diagram"
     sodipodi:insensitive="true"><g
       id="Layer_3"><path
         stroke-miterlimit="10"
         d="m 74.8,74.9 c 24.4,-4.8 55.7,-6.7 68,14.9 5.5,9.7 5.2,21.6 7.1,32.6 1.9,11 7.9,23.1 18.9,25.3 4.2,0.8 8.5,0 12.8,0.4 20.6,1.8 28.8,27.1 32.1,47.5 14.5,89.7 29,179.3 43.5,269 1.2,7.6 4.8,17.2 12.5,16.7 -1.9,-43.2 17.8,-84 37,-122.7 3.4,-6.9 7.2,-14.2 13.7,-18.4 8.4,-5.3 19.2,-4.2 29.1,-2.9 12.3,1.6 24.6,3.3 36.9,4.9 4.5,0.6 9.2,1.3 13,3.9 5.8,4 7.9,11.6 9.4,18.5 7.5,34.1 12,68.8 13.3,103.6 1.6,42.4 -1.1,86.5 16.1,125.3 2.5,5.7 8,12.2 13.7,9.5 5.3,-42 5.4,-84.5 5.8,-126.9 0.9,-101.2 4.2,-205.2 43.4,-298.6 1.8,-4.3 5,-9.4 9.6,-8.8 2.5,0.3 4.5,2.3 6,4.3 12.4,17 3.5,43.1 15.7,60.3 15.5,21.8 48.9,12.3 75.6,13.8 32,1.7 61.8,24.9 71.4,55.5 7.9,25.1 3,52.6 9.9,78 2.3,8.3 8.8,17.9 17.2,15.8 4.5,-54 9,-107.9 13.5,-161.9 0.6,-7.7 1.6,-16.1 7.1,-21.6 8.4,-8.4 22.5,-5.7 33.3,-0.7 10.8,5 21.9,11.8 33.6,9.7 8.5,-7.5 6.7,-26.6 18.1,-26.4 4.6,0.1 8.1,4 10.6,7.9 19.5,30.7 11.1,70.8 18.6,106.4 0.6,3.1 1.5,6.3 3.8,8.5 3.2,3.1 8.1,3.1 12.5,3.5 14.7,1.2 28.8,8.1 38.8,18.9 11.4,12.3 17.1,28.7 26.8,42.4 9.7,13.7 26.6,25.1 42.5,19.7 20.1,-6.9 23.1,-33.6 22.6,-54.8 -1.1,-45.9 -2.2,-91.8 -3.3,-137.8 -0.7,-28.7 0.1,-61.1 21,-80.8"
         id="path25"
         inkscape:connector-curvature="0"
         style="fill:none;stroke:#000000;stroke-miterlimit:10" /><rect
         x="76"
         y="27"
         width="114"
         height="28"
         id="rect27"
         style="fill:none" /><text
         transform="translate(76,35.52)"
         id="text29"><tspan
           x="0"
           y="0"
           font-size="12"
           id="tspan31"
           style="font-size:12px;font-family:MyriadPro-Regular">excited about the new </tspan><tspan
           x="0"
           y="14.4"
           font-size="12"
           id="tspan33"
           style="font-size:12px;font-family:MyriadPro-Regular">project</tspan></text>
<rect
         x="165"
         y="88.5"
         width="134"
         height="51"
         id="rect35"
         style="fill:none" /><text
         transform="translate(165,97.02)"
         id="text37"><tspan
           x="0"
           y="0"
           font-size="12"
           id="tspan39"
           style="font-size:12px;font-family:MyriadPro-Regular">“It’s not as easy as it </tspan><tspan
           x="0"
           y="14.4"
           font-size="12"
           id="tspan41"
           style="font-size:12px;font-family:MyriadPro-Regular">seemed in the beginning”</tspan></text>
<rect
         x="215"
         y="500.5"
         width="134"
         height="51"
         id="rect43"
         style="fill:none" /><text
         transform="translate(215,509.02)"
         id="text45"><tspan
           x="0"
           y="0"
           font-size="12"
           id="tspan47"
           style="font-size:12px;font-family:MyriadPro-Regular">First problem that seems </tspan><tspan
           x="0"
           y="14.4"
           font-size="12"
           id="tspan49"
           style="font-size:12px;font-family:MyriadPro-Regular">unsolveable</tspan></text>
<rect
         x="306"
         y="291.5"
         width="134"
         height="51"
         id="rect51"
         style="fill:none" /><text
         transform="translate(306,300.02)"
         font-size="12"
         id="text53"
         style="font-size:12px;font-family:MyriadPro-Regular">“I solved it! Cool.”</text>
<rect
         x="406.29999"
         y="619.29999"
         width="134"
         height="51"
         id="rect55"
         style="fill:none" /><text
         transform="translate(406.3091,627.8429)"
         id="text57"><tspan
           x="0"
           y="0"
           font-size="12"
           id="tspan59"
           style="font-size:12px;font-family:MyriadPro-Regular">Client wants to see some</tspan><tspan
           x="124.1"
           y="0"
           font-size="12"
           id="tspan61"
           style="font-size:12px;font-family:MyriadPro-Regular">-</tspan><tspan
           x="0"
           y="14.4"
           font-size="12"
           id="tspan63"
           style="font-size:12px;font-family:MyriadPro-Regular">thing + there are delays + </tspan><tspan
           x="0"
           y="28.799999"
           font-size="12"
           id="tspan65"
           style="font-size:12px;font-family:MyriadPro-Regular">second huge problem</tspan></text>
<rect
         x="448.29999"
         y="114"
         width="134"
         height="51"
         id="rect67"
         style="fill:none" /><text
         transform="translate(448.3091,122.52)"
         id="text69"><tspan
           x="0"
           y="0"
           font-size="12"
           id="tspan71"
           style="font-size:12px;font-family:MyriadPro-Regular">work is sent to the client </tspan><tspan
           x="0"
           y="14.4"
           font-size="12"
           id="tspan73"
           style="font-size:12px;font-family:MyriadPro-Regular">and he likes it!</tspan></text>
<rect
         x="540.29999"
         y="222"
         width="134"
         height="51"
         id="rect75"
         style="fill:none" /><text
         transform="translate(540.3091,230.52)"
         font-size="12"
         id="text77"
         style="font-size:12px;font-family:MyriadPro-Regular">happyly working.</text>
<rect
         x="660.29999"
         y="414"
         width="134"
         height="51"
         id="rect79"
         style="fill:none" /><text
         transform="translate(660.3091,422.52)"
         id="text81"><tspan
           x="0"
           y="0"
           font-size="12"
           id="tspan83"
           style="font-size:12px;font-family:MyriadPro-Regular">client wants more / some</tspan><tspan
           x="125.8"
           y="0"
           font-size="12"
           id="tspan85"
           style="font-size:12px;font-family:MyriadPro-Regular">-</tspan><tspan
           x="0"
           y="14.4"
           font-size="12"
           id="tspan87"
           style="font-size:12px;font-family:MyriadPro-Regular">thing different + another </tspan><tspan
           x="0"
           y="28.799999"
           font-size="12"
           id="tspan89"
           style="font-size:12px;font-family:MyriadPro-Regular">problem</tspan></text>
<rect
         x="738.29999"
         y="144"
         width="134"
         height="51"
         id="rect91"
         style="fill:none" /><text
         transform="translate(738.3091,152.52)"
         id="text93"><tspan
           x="0"
           y="0"
           font-size="12"
           id="tspan95"
           style="font-size:12px;font-family:MyriadPro-Regular">solved. good in time. </tspan><tspan
           x="0"
           y="14.4"
           font-size="12"
           id="tspan97"
           style="font-size:12px;font-family:MyriadPro-Regular">“Everything will be good </tspan><tspan
           x="0"
           y="28.799999"
           font-size="12"
           id="tspan99"
           style="font-size:12px;font-family:MyriadPro-Regular">in the end.”</tspan></text>
<rect
         x="847.29999"
         y="278.5"
         width="134"
         height="51"
         id="rect101"
         style="fill:none" /><text
         transform="translate(847.3091,287.02)"
         id="text103"><tspan
           x="0"
           y="0"
           font-size="12"
           id="tspan105"
           style="font-size:12px;font-family:MyriadPro-Regular">last problems +  “OMG I </tspan><tspan
           x="0"
           y="14.4"
           font-size="12"
           id="tspan107"
           style="font-size:12px;font-family:MyriadPro-Regular">need to print it in 5 hours”</tspan></text>
<rect
         x="895.29999"
         y="414"
         width="134"
         height="86.5"
         id="rect109"
         style="fill:none" /><text
         transform="translate(895.3096,422.52)"
         id="text111"><tspan
           x="0"
           y="0"
           font-size="12"
           id="tspan113"
           style="font-size:12px;font-family:MyriadPro-Regular">30 min before printing. </tspan><tspan
           x="0"
           y="14.4"
           font-size="12"
           id="tspan115"
           style="font-size:12px;font-family:MyriadPro-Regular">Not satisfied with the work </tspan><tspan
           x="0"
           y="28.799999"
           font-size="12"
           id="tspan117"
           style="font-size:12px;font-family:MyriadPro-Regular">as much as I thought I </tspan><tspan
           x="0"
           y="43.200001"
           font-size="12"
           id="tspan119"
           style="font-size:12px;font-family:MyriadPro-Regular">would be in the begin</tspan><tspan
           x="109.8"
           y="43.200001"
           font-size="12"
           id="tspan121"
           style="font-size:12px;font-family:MyriadPro-Regular">-</tspan><tspan
           x="0"
           y="57.599998"
           font-size="12"
           id="tspan123"
           style="font-size:12px;font-family:MyriadPro-Regular">ning.</tspan></text>
<rect
         x="994.29999"
         y="100.8"
         width="134"
         height="86.5"
         id="rect125"
         style="fill:none" /><text
         font-size="12"
         id="text127"
         x="939.68726"
         y="109.27"
         style="font-size:12px;font-family:MyriadPro-Regular">“yeah, it’s done.”</text>
</g></g><g
     inkscape:groupmode="layer"
     id="layer3"
     inkscape:label="annotations"
     sodipodi:insensitive="true"
     style="display:inline"><path
       style="fill:none;fill-rule:evenodd;stroke:#59882c;stroke-width:4;stroke-linecap:round;stroke-linejoin:round;stroke-miterlimit:4;stroke-dasharray:none;stroke-opacity:0.63921569"
       d="M 139.61437,68.720451 C 128.4613,62.103094 112.06483,57.432514 98.594893,59.843813 88.44598,62.588302 78.258111,67.078352 70.994983,74.910028 c -5.230833,5.550568 -7.432128,13.261979 -7.25669,20.766079 -0.857676,3.891636 0.39999,7.687563 2.520361,10.947003 3.481006,6.05864 8.035069,12.05716 14.814224,14.58391 13.4823,5.76783 27.749752,9.80228 42.264752,11.89881 6.03429,0.6257 13.0565,1.60394 17.94945,-2.8486 8.35118,-7.20358 13.06592,-18.19834 13.6392,-29.12004 0.41604,-7.552325 -12.12477,-26.832813 -19.34874,-30.195459"
       id="path4203"
       inkscape:connector-curvature="0"
       sodipodi:nodetypes="cccccccccc" /><text
       transform="matrix(0.99887579,-0.04740412,0.04740412,0.99887579,0,0)"
       sodipodi:linespacing="125%"
       id="text4222"
       y="78.804253"
       x="145.96321"
       style="color:#000000;font-style:normal;font-variant:normal;font-weight:normal;font-stretch:normal;font-size:29.92601776px;line-height:125%;font-family:'Comic Sans MS';-inkscape-font-specification:'Comic Sans MS';text-indent:0;text-align:start;text-decoration:none;text-decoration-line:none;letter-spacing:0px;word-spacing:0px;text-transform:none;direction:ltr;block-progression:tb;writing-mode:lr-tb;baseline-shift:baseline;text-anchor:start;display:inline;overflow:visible;visibility:visible;opacity:0.69100001;fill:#59882c;fill-opacity:1;fill-rule:nonzero;stroke:none;stroke-width:1px;stroke-linecap:butt;stroke-linejoin:miter;stroke-opacity:1;marker:none;enable-background:accumulate"
       xml:space="preserve"><tspan
         id="tspan4226"
         y="78.804253"
         x="145.96321"
         sodipodi:role="line">Anticipation</tspan></text>
<text
       xml:space="preserve"
       style="color:#000000;font-style:normal;font-variant:normal;font-weight:normal;font-stretch:normal;font-size:29.92601776px;line-height:125%;font-family:'Comic Sans MS';-inkscape-font-specification:'Comic Sans MS';text-indent:0;text-align:start;text-decoration:none;text-decoration-line:none;letter-spacing:0px;word-spacing:0px;text-transform:none;direction:ltr;block-progression:tb;writing-mode:lr-tb;baseline-shift:baseline;text-anchor:start;display:inline;overflow:visible;visibility:visible;opacity:0.69100001;fill:#59882c;fill-opacity:1;fill-rule:nonzero;stroke:none;stroke-width:1px;stroke-linecap:butt;stroke-linejoin:miter;stroke-opacity:1;marker:none;enable-background:accumulate"
       x="131.72572"
       y="566.935"
       id="text4230"
       sodipodi:linespacing="125%"
       transform="matrix(0.99887579,-0.04740412,0.04740412,0.99887579,0,0)"><tspan
         sodipodi:role="line"
         x="131.72572"
         y="566.935"
         id="tspan4232">Hard-to-solve</tspan><tspan
         sodipodi:role="line"
         x="131.72572"
         y="604.34253"
         id="tspan4234">Problems</tspan></text>
<text
       transform="matrix(0.99839882,0.0565667,-0.0565667,0.99839882,0,0)"
       sodipodi:linespacing="125%"
       id="text4236"
       y="491.17639"
       x="503.09015"
       style="color:#000000;font-style:normal;font-variant:normal;font-weight:normal;font-stretch:normal;font-size:29.92601776px;line-height:125%;font-family:'Comic Sans MS';-inkscape-font-specification:'Comic Sans MS';text-indent:0;text-align:start;text-decoration:none;text-decoration-line:none;letter-spacing:0px;word-spacing:0px;text-transform:none;direction:ltr;block-progression:tb;writing-mode:lr-tb;baseline-shift:baseline;text-anchor:start;display:inline;overflow:visible;visibility:visible;opacity:0.69100001;fill:#59882c;fill-opacity:1;fill-rule:nonzero;stroke:none;stroke-width:1px;stroke-linecap:butt;stroke-linejoin:miter;stroke-opacity:1;marker:none;enable-background:accumulate"
       xml:space="preserve"><tspan
         id="tspan4238"
         y="491.17639"
         x="503.09015"
         sodipodi:role="line">Hard-to-solve</tspan><tspan
         id="tspan4240"
         y="528.58392"
         x="503.09015"
         sodipodi:role="line">Problems +</tspan><tspan
         y="565.99146"
         x="503.09015"
         sodipodi:role="line"
         id="tspan4242">Client</tspan></text>
<text
       xml:space="preserve"
       style="color:#000000;font-style:normal;font-variant:normal;font-weight:normal;font-stretch:normal;font-size:29.92601776px;line-height:125%;font-family:'Comic Sans MS';-inkscape-font-specification:'Comic Sans MS';text-indent:0;text-align:start;text-decoration:none;text-decoration-line:none;letter-spacing:0px;word-spacing:0px;text-transform:none;direction:ltr;block-progression:tb;writing-mode:lr-tb;baseline-shift:baseline;text-anchor:start;display:inline;overflow:visible;visibility:visible;opacity:0.69100001;fill:#59882c;fill-opacity:1;fill-rule:nonzero;stroke:none;stroke-width:1px;stroke-linecap:butt;stroke-linejoin:miter;stroke-opacity:1;marker:none;enable-background:accumulate"
       x="487.34088"
       y="52.540749"
       id="text4244"
       sodipodi:linespacing="125%"
       transform="matrix(0.99687105,0.07904502,-0.07904502,0.99687105,0,0)"><tspan
         id="tspan4250"
         sodipodi:role="line"
         x="487.34088"
         y="52.540749">Praise</tspan></text>
<text
       transform="matrix(0.99887579,-0.04740412,0.04740412,0.99887579,0,0)"
       sodipodi:linespacing="125%"
       id="text4257"
       y="290.76715"
       x="285.44751"
       style="color:#000000;font-style:normal;font-variant:normal;font-weight:normal;font-stretch:normal;font-size:29.92601776px;line-height:125%;font-family:'Comic Sans MS';-inkscape-font-specification:'Comic Sans MS';text-indent:0;text-align:start;text-decoration:none;text-decoration-line:none;letter-spacing:0px;word-spacing:0px;text-transform:none;direction:ltr;block-progression:tb;writing-mode:lr-tb;baseline-shift:baseline;text-anchor:start;display:inline;overflow:visible;visibility:visible;opacity:0.69100001;fill:#59882c;fill-opacity:1;fill-rule:nonzero;stroke:none;stroke-width:1px;stroke-linecap:butt;stroke-linejoin:miter;stroke-opacity:1;marker:none;enable-background:accumulate"
       xml:space="preserve"><tspan
         id="tspan4261"
         y="290.76715"
         x="285.44751"
         sodipodi:role="line">solved</tspan></text>
<text
       xml:space="preserve"
       style="color:#000000;font-style:normal;font-variant:normal;font-weight:normal;font-stretch:normal;font-size:29.92601776px;line-height:125%;font-family:'Comic Sans MS';-inkscape-font-specification:'Comic Sans MS';text-indent:0;text-align:start;text-decoration:none;text-decoration-line:none;letter-spacing:0px;word-spacing:0px;text-transform:none;direction:ltr;block-progression:tb;writing-mode:lr-tb;baseline-shift:baseline;text-anchor:start;display:inline;overflow:visible;visibility:visible;opacity:0.69100001;fill:#59882c;fill-opacity:1;fill-rule:nonzero;stroke:none;stroke-width:1px;stroke-linecap:butt;stroke-linejoin:miter;stroke-opacity:1;marker:none;enable-background:accumulate"
       x="774.30469"
       y="63.364479"
       id="text4265"
       sodipodi:linespacing="125%"
       transform="matrix(0.99688021,0.07892935,-0.07892935,0.99688021,0,0)"><tspan
         sodipodi:role="line"
         x="774.30469"
         y="63.364479"
         id="tspan4267">solved</tspan></text>
<text
       transform="matrix(0.99318591,-0.11654075,0.11654075,0.99318591,0,0)"
       sodipodi:linespacing="125%"
       id="text4269"
       y="198.32648"
       x="922.94635"
       style="color:#000000;font-style:normal;font-variant:normal;font-weight:normal;font-stretch:normal;font-size:29.92601776px;line-height:125%;font-family:'Comic Sans MS';-inkscape-font-specification:'Comic Sans MS';text-indent:0;text-align:start;text-decoration:none;text-decoration-line:none;letter-spacing:0px;word-spacing:0px;text-transform:none;direction:ltr;block-progression:tb;writing-mode:lr-tb;baseline-shift:baseline;text-anchor:start;display:inline;overflow:visible;visibility:visible;opacity:0.69100001;fill:#59882c;fill-opacity:1;fill-rule:nonzero;stroke:none;stroke-width:1px;stroke-linecap:butt;stroke-linejoin:miter;stroke-opacity:1;marker:none;enable-background:accumulate"
       xml:space="preserve"><tspan
         id="tspan4271"
         y="198.32648"
         x="922.94635"
         sodipodi:role="line">done</tspan></text>
<text
       xml:space="preserve"
       style="color:#000000;font-style:normal;font-variant:normal;font-weight:normal;font-stretch:normal;font-size:22.09848022px;line-height:125%;font-family:'Comic Sans MS';-inkscape-font-specification:'Comic Sans MS';text-indent:0;text-align:start;text-decoration:none;text-decoration-line:none;letter-spacing:0px;word-spacing:0px;text-transform:none;direction:ltr;block-progression:tb;writing-mode:lr-tb;baseline-shift:baseline;text-anchor:start;display:inline;overflow:visible;visibility:visible;opacity:0.69100001;fill:#59882c;fill-opacity:1;fill-rule:nonzero;stroke:none;stroke-width:1px;stroke-linecap:butt;stroke-linejoin:miter;stroke-opacity:1;marker:none;enable-background:accumulate"
       x="824.03235"
       y="611.3277"
       id="text4273"
       sodipodi:linespacing="125%"
       transform="matrix(0.99887579,-0.04740412,0.04740412,0.99887579,0,0)"><tspan
         sodipodi:role="line"
         x="824.03235"
         y="611.3277"
         id="tspan4275">hurry+</tspan><tspan
         sodipodi:role="line"
         x="824.03235"
         y="638.95081"
         id="tspan4277">&quot;could be nicer&quot;</tspan></text>
<path
       style="fill:none;fill-opacity:0.63921569;fill-rule:evenodd;stroke:#59882c;stroke-width:5;stroke-linecap:round;stroke-linejoin:miter;stroke-miterlimit:4;stroke-dasharray:none;stroke-opacity:0.63921569"
       d="m 824.90895,457.61132 c -6.68097,45.33287 52.24874,39.3395 78.03193,47.9339 4.52847,1.50949 26.13597,16.22422 21.18009,21.18009 -1.07166,1.07167 -1.11474,-7.19328 -1.11474,-11.14741 0,-9.71466 16.34935,-12.26216 23.40958,-12.26216 28.16905,0 70.62309,8.12908 85.83509,-22.29484"
       id="path4279"
       inkscape:connector-curvature="0" /></g></svg>