<?xml version="1.0" encoding="UTF-8" standalone="no"?>
<!-- Created with Inkscape (http://www.inkscape.org/) -->

<svg
   xmlns:dc="http://purl.org/dc/elements/1.1/"
   xmlns:cc="http://creativecommons.org/ns#"
   xmlns:rdf="http://www.w3.org/1999/02/22-rdf-syntax-ns#"
   xmlns:svg="http://www.w3.org/2000/svg"
   xmlns="http://www.w3.org/2000/svg"
   xmlns:sodipodi="http://sodipodi.sourceforge.net/DTD/sodipodi-0.dtd"
   xmlns:inkscape="http://www.inkscape.org/namespaces/inkscape"
   width="210mm"
   height="297mm"
   viewBox="0 0 744.09448819 1052.3622047"
   id="svg20223"
   version="1.1"
   inkscape:version="0.91 r13725"
   sodipodi:docname="urBookCover.svg">
  <defs
     id="defs20225" />
  <sodipodi:namedview
     id="base"
     pagecolor="#ffffff"
     bordercolor="#666666"
     borderopacity="1.0"
     inkscape:pageopacity="0.0"
     inkscape:pageshadow="2"
     inkscape:zoom="0.7"
     inkscape:cx="136.70202"
     inkscape:cy="672.35837"
     inkscape:document-units="px"
     inkscape:current-layer="layer1"
     showgrid="false"
     inkscape:window-width="1920"
     inkscape:window-height="1056"
     inkscape:window-x="0"
     inkscape:window-y="24"
     inkscape:window-maximized="1"
     showguides="true"
     inkscape:guide-bbox="true">
    <sodipodi:guide
       position="3298.5715,472.85715"
       orientation="1,0"
       id="guide4438" />
  </sodipodi:namedview>
  <metadata
     id="metadata20228">
    <rdf:RDF>
      <cc:Work
         rdf:about="">
        <dc:format>image/svg+xml</dc:format>
        <dc:type
           rdf:resource="http://purl.org/dc/dcmitype/StillImage" />
        <dc:title />
      </cc:Work>
    </rdf:RDF>
  </metadata>
  <g
     inkscape:label="Ebene 1"
     inkscape:groupmode="layer"
     id="layer1">
    <flowRoot
       xml:space="preserve"
       id="flowRoot20232"
       style="fill:#000000;stroke:none;stroke-opacity:1;stroke-width:1px;stroke-linejoin:miter;stroke-linecap:butt;font-size:16px;font-style:normal;font-variant:normal;font-weight:normal;font-stretch:normal;text-indent:0;text-align:start;text-decoration:none;line-height:125%;letter-spacing:0px;word-spacing:0px;text-transform:none;direction:ltr;block-progression:tb;writing-mode:lr-tb;text-anchor:start;baseline-shift:baseline;color:#000000;fill-opacity:1;fill-rule:nonzero;marker:none;visibility:visible;display:inline;overflow:visible;enable-background:accumulate;font-family:Comic Sans MS;-inkscape-font-specification:Comic Sans MS"><flowRegion
         id="flowRegion20234"><rect
           id="rect20236"
           width="458.57144"
           height="240"
           x="70"
           y="149.50507" /></flowRegion><flowPara
         id="flowPara20238" /></flowRoot>    <flowRoot
       xml:space="preserve"
       id="flowRoot20445"
       style="fill:#000000;stroke:none;stroke-opacity:1;stroke-width:1px;stroke-linejoin:miter;stroke-linecap:butt;font-size:16px;font-style:normal;font-variant:normal;font-weight:normal;font-stretch:normal;text-indent:0;text-align:start;text-decoration:none;line-height:125%;letter-spacing:0px;word-spacing:0px;text-transform:none;direction:ltr;block-progression:tb;writing-mode:lr-tb;text-anchor:start;baseline-shift:baseline;color:#000000;fill-opacity:1;fill-rule:nonzero;marker:none;visibility:visible;display:inline;overflow:visible;enable-background:accumulate;font-family:Comic Sans MS;-inkscape-font-specification:Comic Sans MS"><flowRegion
         id="flowRegion20447"><rect
           id="rect20449"
           width="917.14282"
           height="1177.1428"
           x="3202.8572"
           y="1000.9337" /></flowRegion><flowPara
         id="flowPara20451" /></flowRoot>    <flowRoot
       xml:space="preserve"
       id="flowRoot20453"
       style="fill:#000000;stroke:none;stroke-opacity:1;stroke-width:1px;stroke-linejoin:miter;stroke-linecap:butt;font-size:16px;font-style:normal;font-variant:normal;font-weight:normal;font-stretch:normal;text-indent:0;text-align:start;text-decoration:none;line-height:125%;letter-spacing:0px;word-spacing:0px;text-transform:none;direction:ltr;block-progression:tb;writing-mode:lr-tb;text-anchor:start;baseline-shift:baseline;color:#000000;fill-opacity:1;fill-rule:nonzero;marker:none;visibility:visible;display:inline;overflow:visible;enable-background:accumulate;font-family:Comic Sans MS;-inkscape-font-specification:Comic Sans MS"><flowRegion
         id="flowRegion20455"><rect
           id="rect20457"
           width="402.85715"
           height="1031.4286"
           x="3742.8572"
           y="983.79077" /></flowRegion><flowPara
         id="flowPara20459" /></flowRoot>    <text
       xml:space="preserve"
       style="color:#000000;font-style:normal;font-variant:normal;font-weight:normal;font-stretch:normal;font-size:40px;line-height:125%;font-family:'Redacted Script';-inkscape-font-specification:'Redacted Script';text-indent:0;text-align:end;text-decoration:none;text-decoration-line:none;letter-spacing:0px;word-spacing:0px;text-transform:none;direction:ltr;block-progression:tb;writing-mode:lr-tb;baseline-shift:baseline;text-anchor:end;display:inline;overflow:visible;visibility:visible;fill:#babdb6;fill-opacity:1;fill-rule:nonzero;stroke:none;stroke-width:1px;stroke-linecap:butt;stroke-linejoin:miter;stroke-opacity:1;marker:none;enable-background:accumulate"
       x="691.86414"
       y="653.49957"
       id="text20461"
       sodipodi:linespacing="125%"><tspan
         style="font-style:normal;font-variant:normal;font-weight:normal;font-stretch:normal;font-size:40px;font-family:'Redacted Script';-inkscape-font-specification:'Redacted Script';text-align:end;text-anchor:end;fill:#babdb6"
         sodipodi:role="line"
         x="704.59851"
         y="653.49957"
         id="tspan20463">Understand motivations, </tspan><tspan
         style="font-style:normal;font-variant:normal;font-weight:normal;font-stretch:normal;font-size:40px;font-family:'Redacted Script';-inkscape-font-specification:'Redacted Script';text-align:end;text-anchor:end;fill:#babdb6"
         id="tspan20465"
         sodipodi:role="line"
         x="691.86414"
         y="706.02094">activities and problems of users.</tspan></text>
    <text
       sodipodi:linespacing="103%"
       id="text20467"
       y="280.16266"
       x="714.94934"
       style="color:#000000;font-style:normal;font-variant:normal;font-weight:normal;font-stretch:normal;font-size:88.65029907px;line-height:102.99999714%;font-family:'Redacted Script';-inkscape-font-specification:'Redacted Script';text-indent:0;text-align:end;text-decoration:none;text-decoration-line:none;letter-spacing:0px;word-spacing:0px;text-transform:none;direction:ltr;block-progression:tb;writing-mode:lr-tb;baseline-shift:baseline;text-anchor:end;display:inline;overflow:visible;visibility:visible;fill:#e5e5e5;fill-opacity:1;fill-rule:nonzero;stroke:none;stroke-width:1px;stroke-linecap:butt;stroke-linejoin:miter;stroke-opacity:1;marker:none;enable-background:accumulate;"
       xml:space="preserve"><tspan
         style="font-style:normal;font-variant:normal;font-weight:normal;font-stretch:normal;line-height:102.99999714%;font-family:'Redacted Script';-inkscape-font-specification:'Redacted Script';text-align:end;text-anchor:end;fill:#e5e5e5;fill-opacity:1;"
         y="280.16266"
         x="714.94934"
         id="tspan20469"
         sodipodi:role="line">Beginner’s Guide</tspan><tspan
         style="font-style:normal;font-variant:normal;font-weight:normal;font-stretch:normal;line-height:102.99999714%;font-family:'Redacted Script';-inkscape-font-specification:'Redacted Script';text-align:end;text-anchor:end;fill:#e5e5e5;fill-opacity:1;"
         id="tspan20471"
         y="371.47247"
         x="714.94934"
         sodipodi:role="line">to finding</tspan><tspan
         style="font-style:normal;font-variant:normal;font-weight:normal;font-stretch:normal;line-height:102.99999714%;font-family:'Redacted Script';-inkscape-font-specification:'Redacted Script';text-align:end;text-anchor:end;fill:#e5e5e5;fill-opacity:1;"
         id="tspan20473"
         y="462.78229"
         x="714.94934"
         sodipodi:role="line">User Needs</tspan></text>
    <text
       sodipodi:linespacing="125%"
       id="text20475"
       y="101.33428"
       x="702.5094"
       style="color:#000000;font-style:normal;font-variant:normal;font-weight:300;font-stretch:normal;font-size:40px;line-height:125%;font-family:'Redacted Script';-inkscape-font-specification:'Redacted Script Light';text-indent:0;text-align:end;text-decoration:none;text-decoration-line:none;letter-spacing:0px;word-spacing:0px;text-transform:none;direction:ltr;block-progression:tb;writing-mode:lr-tb;baseline-shift:baseline;text-anchor:end;display:inline;overflow:visible;visibility:visible;fill:#babdb6;fill-opacity:1;fill-rule:nonzero;stroke:none;stroke-width:1px;stroke-linecap:butt;stroke-linejoin:miter;stroke-opacity:1;marker:none;enable-background:accumulate"
       xml:space="preserve"><tspan
         y="101.33428"
         x="702.5094"
         sodipodi:role="line"
         id="tspan20477"
         style="font-style:normal;font-variant:normal;font-weight:normal;font-stretch:normal;font-family:'Redacted Script';-inkscape-font-specification:'Redacted Script';fill:#babdb6;fill-opacity:1">Jan Dittich</tspan></text>
    <text
       sodipodi:linespacing="161%"
       id="text20479"
       y="682.94977"
       x="62.839069"
       style="color:#000000;font-style:normal;font-variant:normal;font-weight:normal;font-stretch:normal;font-size:37.79666519px;line-height:161.00000143%;font-family:'Fira Sans';-inkscape-font-specification:'Fira Sans';text-indent:0;text-align:start;text-decoration:none;text-decoration-line:none;letter-spacing:0px;word-spacing:0px;text-transform:none;direction:ltr;block-progression:tb;writing-mode:lr-tb;baseline-shift:baseline;text-anchor:start;display:inline;overflow:visible;visibility:visible;fill:none;fill-opacity:1;fill-rule:nonzero;stroke:none;stroke-width:1px;stroke-linecap:butt;stroke-linejoin:miter;stroke-opacity:1;marker:none;enable-background:accumulate;"
       xml:space="preserve"><tspan
         style="font-style:normal;font-variant:normal;font-weight:normal;font-stretch:normal;line-height:161.00000143%;font-family:'Fira Sans';-inkscape-font-specification:'Fira Sans';text-align:start;text-anchor:start;fill:none;fill-opacity:1;"
         id="tspan20481"
         y="682.94977"
         x="62.839069"
         sodipodi:role="line">Understand motivations, </tspan><tspan
         style="font-style:normal;font-variant:normal;font-weight:normal;font-stretch:normal;line-height:161.00000143%;font-family:'Fira Sans';-inkscape-font-specification:'Fira Sans';text-align:start;text-anchor:start;fill:none;fill-opacity:1;"
         y="743.80243"
         x="62.839069"
         sodipodi:role="line"
         id="tspan20483">activities and problems of users.</tspan></text>
    <text
       xml:space="preserve"
       style="color:#000000;font-style:normal;font-variant:normal;font-weight:normal;font-stretch:normal;font-size:88.65029907px;line-height:215.00000954%;font-family:'Fira Sans';-inkscape-font-specification:'Fira Sans';text-indent:0;text-align:start;text-decoration:none;text-decoration-line:none;letter-spacing:0px;word-spacing:0px;text-transform:none;direction:ltr;block-progression:tb;writing-mode:lr-tb;baseline-shift:baseline;text-anchor:start;display:inline;overflow:visible;visibility:visible;fill:none;fill-opacity:1;fill-rule:nonzero;stroke:none;stroke-width:1px;stroke-linecap:butt;stroke-linejoin:miter;stroke-opacity:1;marker:none;enable-background:accumulate;"
       x="60.361042"
       y="322.57147"
       id="text20485"
       sodipodi:linespacing="215.00001%"><tspan
         sodipodi:role="line"
         id="tspan20487"
         x="60.361042"
         y="322.57147"
         style="font-style:normal;font-variant:normal;font-weight:normal;font-stretch:normal;font-size:50px;line-height:179.99999523%;font-family:'Fira Sans';-inkscape-font-specification:'Fira Sans';text-align:start;text-anchor:start;fill:none;fill-opacity:1;">A Beginner’s Guide</tspan><tspan
         sodipodi:role="line"
         x="60.361042"
         y="412.57147"
         id="tspan20489"
         style="font-style:normal;font-variant:normal;font-weight:normal;font-stretch:normal;font-size:50px;line-height:179.99999523%;font-family:'Fira Sans';-inkscape-font-specification:'Fira Sans';text-align:start;text-anchor:start;fill:none;fill-opacity:1;">to finding</tspan><tspan
         sodipodi:role="line"
         x="60.361042"
         y="502.57147"
         id="tspan20491"
         style="font-style:normal;font-variant:normal;font-weight:normal;font-stretch:normal;font-size:50px;line-height:179.99999523%;font-family:'Fira Sans';-inkscape-font-specification:'Fira Sans';text-align:start;text-anchor:start;fill:none;fill-opacity:1;">User Needs</tspan></text>
    <text
       xml:space="preserve"
       style="color:#000000;font-style:normal;font-variant:normal;font-weight:normal;font-stretch:normal;font-size:37.79666519px;line-height:125%;font-family:'Fira Sans';-inkscape-font-specification:'Fira Sans';text-indent:0;text-align:start;text-decoration:none;text-decoration-line:none;letter-spacing:0px;word-spacing:0px;text-transform:none;direction:ltr;block-progression:tb;writing-mode:lr-tb;baseline-shift:baseline;text-anchor:start;display:inline;overflow:visible;visibility:visible;fill:none;fill-opacity:1;fill-rule:nonzero;stroke:none;stroke-width:1px;stroke-linecap:butt;stroke-linejoin:miter;stroke-opacity:1;marker:none;enable-background:accumulate;"
       x="64.549515"
       y="111.87652"
       id="text20493"
       sodipodi:linespacing="125%"><tspan
         style="font-style:normal;font-variant:normal;font-weight:normal;font-stretch:normal;font-family:'Fira Sans';-inkscape-font-specification:'Fira Sans';fill:none;fill-opacity:1;"
         id="tspan20495"
         sodipodi:role="line"
         x="64.549515"
         y="111.87652">Jan Dittrich</tspan></text>
    <g
       style="color:#000000;font-style:normal;font-variant:normal;font-weight:normal;font-stretch:normal;font-size:37.79666519px;line-height:161.00000143%;font-family:'Fira Sans';-inkscape-font-specification:'Fira Sans';text-indent:0;text-align:start;text-decoration:none;text-decoration-line:none;letter-spacing:0px;word-spacing:0px;text-transform:none;direction:ltr;block-progression:tb;writing-mode:lr-tb;baseline-shift:baseline;text-anchor:start;display:inline;overflow:visible;visibility:visible;fill:#535557;fill-opacity:1;fill-rule:nonzero;stroke:none;stroke-width:1px;stroke-linecap:butt;stroke-linejoin:miter;stroke-opacity:1;marker:none;enable-background:accumulate"
       id="text4440"
       transform="translate(714.28571,8.5714286)">
      <path
         d="m -626.96979,654.05075 -3.62847,0 0,17.42426 c 0,4.04424 -1.77645,6.04747 -5.51832,6.04747 -3.70407,0 -5.48051,-2.00323 -5.48051,-6.04747 l 0,-17.42426 -3.59069,0 0,17.68884 c 0,5.17814 3.13713,8.80662 9.0712,8.80662 5.85849,0 9.14679,-3.62848 9.14679,-8.80662 l 0,-17.68884 z"
         style="font-style:normal;font-variant:normal;font-weight:normal;font-stretch:normal;line-height:161.00000143%;font-family:'Fira Sans';-inkscape-font-specification:'Fira Sans';text-align:start;text-anchor:start;fill:#535557;fill-opacity:1"
         id="path4549"
         inkscape:connector-curvature="0" />
      <path
         d="m -610.5997,659.72025 c -2.60797,0 -4.72458,1.36068 -6.08526,3.4017 l -0.30237,-2.94814 -2.98594,0 0,19.91884 3.47729,0 0,-14.13595 c 1.32289,-2.11661 2.83475,-3.51509 5.06476,-3.51509 1.92763,0 3.13712,0.86932 3.13712,3.85526 l 0,13.79578 3.47729,0 0,-14.28714 c 0,-3.77966 -2.11661,-6.08526 -5.78289,-6.08526 z"
         style="font-style:normal;font-variant:normal;font-weight:normal;font-stretch:normal;line-height:161.00000143%;font-family:'Fira Sans';-inkscape-font-specification:'Fira Sans';text-align:start;text-anchor:start;fill:#535557;fill-opacity:1"
         id="path4551"
         inkscape:connector-curvature="0" />
      <path
         d="m -585.88304,651.74515 0,10.43188 c -1.32288,-1.39847 -3.02373,-2.45678 -5.36712,-2.45678 -4.87577,0 -7.82391,4.42221 -7.82391,10.50747 0,6.19865 2.68356,10.31849 7.52153,10.31849 2.45679,0 4.46001,-1.20949 5.7451,-3.21272 l 0.34017,2.75916 3.06153,0 0,-27.93173 -3.4773,-0.41577 z m -4.91356,26.0419 c -2.87255,0 -4.5356,-2.38119 -4.5356,-7.63492 0,-5.17814 1.85203,-7.67272 4.83797,-7.67272 1.96543,0 3.3639,1.02051 4.61119,2.60797 l 0,9.75153 c -1.32288,1.85204 -2.68356,2.94814 -4.91356,2.94814 z"
         style="font-style:normal;font-variant:normal;font-weight:normal;font-stretch:normal;line-height:161.00000143%;font-family:'Fira Sans';-inkscape-font-specification:'Fira Sans';text-align:start;text-anchor:start;fill:#535557;fill-opacity:1"
         id="path4553"
         inkscape:connector-curvature="0" />
      <path
         d="m -560.1943,669.54738 c 0,-6.08526 -2.83475,-9.82713 -8.20188,-9.82713 -5.14034,0 -8.27747,4.42221 -8.27747,10.62086 0,6.31204 3.25052,10.2051 8.80663,10.2051 2.75915,0 4.98916,-0.94492 6.95458,-2.49458 l -1.51186,-2.07882 c -1.73865,1.2095 -3.21272,1.73865 -5.17815,1.73865 -2.87254,0 -5.02695,-1.77644 -5.36712,-6.38763 l 12.69968,0 c 0.0378,-0.45356 0.0756,-1.09611 0.0756,-1.77645 z m -3.4395,-0.79373 -9.33577,0 c 0.26457,-4.42221 2.00322,-6.27424 4.64899,-6.27424 3.13712,0 4.68678,2.15441 4.68678,6.04746 l 0,0.22678 z"
         style="font-style:normal;font-variant:normal;font-weight:normal;font-stretch:normal;line-height:161.00000143%;font-family:'Fira Sans';-inkscape-font-specification:'Fira Sans';text-align:start;text-anchor:start;fill:#535557;fill-opacity:1"
         id="path4555"
         inkscape:connector-curvature="0" />
      <path
         d="m -545.76424,659.72025 c -2.41899,0 -4.27102,1.51187 -5.32933,4.4978 l -0.34017,-4.04424 -2.98594,0 0,19.91884 3.4773,0 0,-11.37679 c 0.83152,-3.81747 2.2678,-5.59391 4.76238,-5.59391 0.71813,0 1.1339,0.0756 1.73864,0.22678 l 0.64255,-3.4017 c -0.60475,-0.15119 -1.32289,-0.22678 -1.96543,-0.22678 z"
         style="font-style:normal;font-variant:normal;font-weight:normal;font-stretch:normal;line-height:161.00000143%;font-family:'Fira Sans';-inkscape-font-specification:'Fira Sans';text-align:start;text-anchor:start;fill:#535557;fill-opacity:1"
         id="path4557"
         inkscape:connector-curvature="0" />
      <path
         d="m -534.76718,659.72025 c -4.11984,0 -7.18137,2.3056 -7.18137,5.48052 0,2.79695 1.70085,4.64899 6.00967,5.78289 3.85526,1.02051 4.83798,1.77644 4.83798,3.74186 0,1.88984 -1.66306,3.02374 -4.27103,3.02374 -2.15441,0 -4.00644,-0.71814 -5.5939,-1.92763 l -1.85204,2.11661 c 1.73865,1.51187 4.15763,2.60797 7.52154,2.60797 4.04424,0 7.8617,-1.88983 7.8617,-6.04747 0,-3.47729 -2.41898,-5.14034 -6.61441,-6.19865 -3.21272,-0.83152 -4.27103,-1.58746 -4.27103,-3.21271 0,-1.58746 1.39848,-2.60797 3.66628,-2.60797 1.85204,0 3.4017,0.56695 5.17814,1.70085 l 1.47407,-2.19221 c -1.88983,-1.43627 -3.96865,-2.2678 -6.7656,-2.2678 z"
         style="font-style:normal;font-variant:normal;font-weight:normal;font-stretch:normal;line-height:161.00000143%;font-family:'Fira Sans';-inkscape-font-specification:'Fira Sans';text-align:start;text-anchor:start;fill:#535557;fill-opacity:1"
         id="path4559"
         inkscape:connector-curvature="0" />
      <path
         d="m -513.79771,676.80434 c -0.98271,0.60475 -1.77644,0.86932 -2.64577,0.86932 -1.73864,0 -2.38119,-0.94491 -2.38119,-2.94814 l 0,-11.86815 4.34662,0 0.37797,-2.68356 -4.72459,0 0,-4.91357 -3.47729,0.41577 0,4.4978 -3.47729,0 0,2.68356 3.47729,0 0,12.01934 c 0,3.70407 2.00322,5.6695 5.36713,5.6695 1.70085,0 3.13712,-0.45356 4.46,-1.36068 l -1.32288,-2.38119 z"
         style="font-style:normal;font-variant:normal;font-weight:normal;font-stretch:normal;line-height:161.00000143%;font-family:'Fira Sans';-inkscape-font-specification:'Fira Sans';text-align:start;text-anchor:start;fill:#535557;fill-opacity:1"
         id="path4561"
         inkscape:connector-curvature="0" />
      <path
         d="m -495.45393,675.44366 0,-9.10899 c 0,-4.15764 -2.19221,-6.61442 -6.99239,-6.61442 -2.23,0 -4.42221,0.45356 -6.87899,1.36068 l 0.86932,2.53238 c 2.04102,-0.68034 3.89306,-1.05831 5.36713,-1.05831 2.75916,0 4.15763,1.05831 4.15763,3.93085 l 0,1.47407 -3.06153,0 c -5.55611,0 -8.76882,2.3056 -8.76882,6.57662 0,3.55289 2.38119,6.00967 6.34984,6.00967 2.41898,0 4.5356,-0.90712 5.93407,-2.98594 0.60475,1.96543 1.88984,2.75916 3.89306,2.98594 l 0.79373,-2.41899 c -1.02051,-0.37796 -1.66305,-0.94491 -1.66305,-2.68356 z m -8.16408,2.49458 c -2.2678,0 -3.4395,-1.24729 -3.4395,-3.59068 0,-2.72136 1.85204,-4.08204 5.51831,-4.08204 l 2.60797,0 0,4.57339 c -1.1339,2.07882 -2.64576,3.09933 -4.68678,3.09933 z"
         style="font-style:normal;font-variant:normal;font-weight:normal;font-stretch:normal;line-height:161.00000143%;font-family:'Fira Sans';-inkscape-font-specification:'Fira Sans';text-align:start;text-anchor:start;fill:#535557;fill-opacity:1"
         id="path4563"
         inkscape:connector-curvature="0" />
      <path
         d="m -478.90194,659.72025 c -2.60797,0 -4.72458,1.36068 -6.08526,3.4017 l -0.30238,-2.94814 -2.98593,0 0,19.91884 3.47729,0 0,-14.13595 c 1.32288,-2.11661 2.83475,-3.51509 5.06475,-3.51509 1.92763,0 3.13713,0.86932 3.13713,3.85526 l 0,13.79578 3.47729,0 0,-14.28714 c 0,-3.77966 -2.11661,-6.08526 -5.78289,-6.08526 z"
         style="font-style:normal;font-variant:normal;font-weight:normal;font-stretch:normal;line-height:161.00000143%;font-family:'Fira Sans';-inkscape-font-specification:'Fira Sans';text-align:start;text-anchor:start;fill:#535557;fill-opacity:1"
         id="path4565"
         inkscape:connector-curvature="0" />
      <path
         d="m -454.18528,651.74515 0,10.43188 c -1.32289,-1.39847 -3.02374,-2.45678 -5.36713,-2.45678 -4.87577,0 -7.82391,4.42221 -7.82391,10.50747 0,6.19865 2.68357,10.31849 7.52154,10.31849 2.45678,0 4.46,-1.20949 5.74509,-3.21272 l 0.34017,2.75916 3.06153,0 0,-27.93173 -3.47729,-0.41577 z m -4.91357,26.0419 c -2.87254,0 -4.5356,-2.38119 -4.5356,-7.63492 0,-5.17814 1.85204,-7.67272 4.83797,-7.67272 1.96543,0 3.36391,1.02051 4.6112,2.60797 l 0,9.75153 c -1.32289,1.85204 -2.68357,2.94814 -4.91357,2.94814 z"
         style="font-style:normal;font-variant:normal;font-weight:normal;font-stretch:normal;line-height:161.00000143%;font-family:'Fira Sans';-inkscape-font-specification:'Fira Sans';text-align:start;text-anchor:start;fill:#535557;fill-opacity:1"
         id="path4567"
         inkscape:connector-curvature="0" />
      <path
         d="m -413.50544,659.72025 c -2.68357,0 -4.4978,1.43627 -5.93408,3.59068 -0.75593,-2.2678 -2.57017,-3.59068 -5.02695,-3.59068 -2.60797,0 -4.42221,1.36068 -5.7451,3.3639 l -0.30237,-2.91034 -2.98594,0 0,19.91884 3.4773,0 0,-14.13595 c 1.32288,-2.11661 2.53237,-3.51509 4.68678,-3.51509 1.51187,0 2.79696,0.86932 2.79696,3.85526 l 0,13.79578 3.47729,0 0,-14.13595 c 1.36068,-2.11661 2.53237,-3.51509 4.68678,-3.51509 1.51187,0 2.79696,0.86932 2.79696,3.85526 l 0,13.79578 3.47729,0 0,-14.28714 c 0,-3.74187 -2.15441,-6.08526 -5.40492,-6.08526 z"
         style="font-style:normal;font-variant:normal;font-weight:normal;font-stretch:normal;line-height:161.00000143%;font-family:'Fira Sans';-inkscape-font-specification:'Fira Sans';text-align:start;text-anchor:start;fill:#535557;fill-opacity:1"
         id="path4569"
         inkscape:connector-curvature="0" />
      <path
         d="m -393.60845,659.72025 c -5.6695,0 -8.92002,4.27102 -8.92002,10.43188 0,6.31204 3.21272,10.39408 8.88222,10.39408 5.6317,0 8.88222,-4.27102 8.88222,-10.43188 0,-6.31204 -3.17492,-10.39408 -8.84442,-10.39408 z m 0,2.79695 c 3.28831,0 5.10255,2.41899 5.10255,7.59713 0,5.21594 -1.81424,7.63493 -5.14035,7.63493 -3.32611,0 -5.14035,-2.41899 -5.14035,-7.59713 0,-5.21594 1.85204,-7.63493 5.17815,-7.63493 z"
         style="font-style:normal;font-variant:normal;font-weight:normal;font-stretch:normal;line-height:161.00000143%;font-family:'Fira Sans';-inkscape-font-specification:'Fira Sans';text-align:start;text-anchor:start;fill:#535557;fill-opacity:1"
         id="path4571"
         inkscape:connector-curvature="0" />
      <path
         d="m -370.28849,676.80434 c -0.98271,0.60475 -1.77644,0.86932 -2.64576,0.86932 -1.73865,0 -2.38119,-0.94491 -2.38119,-2.94814 l 0,-11.86815 4.34661,0 0.37797,-2.68356 -4.72458,0 0,-4.91357 -3.4773,0.41577 0,4.4978 -3.47729,0 0,2.68356 3.47729,0 0,12.01934 c 0,3.70407 2.00323,5.6695 5.36713,5.6695 1.70085,0 3.13712,-0.45356 4.46001,-1.36068 l -1.32289,-2.38119 z"
         style="font-style:normal;font-variant:normal;font-weight:normal;font-stretch:normal;line-height:161.00000143%;font-family:'Fira Sans';-inkscape-font-specification:'Fira Sans';text-align:start;text-anchor:start;fill:#535557;fill-opacity:1"
         id="path4573"
         inkscape:connector-curvature="0" />
      <path
         d="m -363.66168,650.61125 c -1.43628,0 -2.41899,1.02051 -2.41899,2.38119 0,1.32289 0.98271,2.3434 2.41899,2.3434 1.47407,0 2.45678,-1.02051 2.45678,-2.3434 0,-1.36068 -0.98271,-2.38119 -2.45678,-2.38119 z m 1.77644,9.56256 -3.47729,0 0,19.91884 3.47729,0 0,-19.91884 z"
         style="font-style:normal;font-variant:normal;font-weight:normal;font-stretch:normal;line-height:161.00000143%;font-family:'Fira Sans';-inkscape-font-specification:'Fira Sans';text-align:start;text-anchor:start;fill:#535557;fill-opacity:1"
         id="path4575"
         inkscape:connector-curvature="0" />
      <path
         d="m -340.10491,660.17381 -3.66628,0 -5.17814,16.81951 -5.21594,-16.81951 -3.77967,0 6.87899,19.91884 4.19543,0 6.76561,-19.91884 z"
         style="font-style:normal;font-variant:normal;font-weight:normal;font-stretch:normal;line-height:161.00000143%;font-family:'Fira Sans';-inkscape-font-specification:'Fira Sans';text-align:start;text-anchor:start;fill:#535557;fill-opacity:1"
         id="path4577"
         inkscape:connector-curvature="0" />
      <path
         d="m -322.71135,675.44366 0,-9.10899 c 0,-4.15764 -2.19221,-6.61442 -6.99238,-6.61442 -2.23001,0 -4.42221,0.45356 -6.879,1.36068 l 0.86933,2.53238 c 2.04102,-0.68034 3.89305,-1.05831 5.36712,-1.05831 2.75916,0 4.15764,1.05831 4.15764,3.93085 l 0,1.47407 -3.06153,0 c -5.55611,0 -8.76883,2.3056 -8.76883,6.57662 0,3.55289 2.38119,6.00967 6.34984,6.00967 2.41899,0 4.5356,-0.90712 5.93408,-2.98594 0.60474,1.96543 1.88983,2.75916 3.89305,2.98594 l 0.79373,-2.41899 c -1.02051,-0.37796 -1.66305,-0.94491 -1.66305,-2.68356 z m -8.16408,2.49458 c -2.2678,0 -3.4395,-1.24729 -3.4395,-3.59068 0,-2.72136 1.85204,-4.08204 5.51832,-4.08204 l 2.60797,0 0,4.57339 c -1.1339,2.07882 -2.64577,3.09933 -4.68679,3.09933 z"
         style="font-style:normal;font-variant:normal;font-weight:normal;font-stretch:normal;line-height:161.00000143%;font-family:'Fira Sans';-inkscape-font-specification:'Fira Sans';text-align:start;text-anchor:start;fill:#535557;fill-opacity:1"
         id="path4579"
         inkscape:connector-curvature="0" />
      <path
         d="m -306.80191,676.80434 c -0.98272,0.60475 -1.77645,0.86932 -2.64577,0.86932 -1.73865,0 -2.38119,-0.94491 -2.38119,-2.94814 l 0,-11.86815 4.34662,0 0.37796,-2.68356 -4.72458,0 0,-4.91357 -3.47729,0.41577 0,4.4978 -3.4773,0 0,2.68356 3.4773,0 0,12.01934 c 0,3.70407 2.00322,5.6695 5.36712,5.6695 1.70085,0 3.13713,-0.45356 4.46001,-1.36068 l -1.32288,-2.38119 z"
         style="font-style:normal;font-variant:normal;font-weight:normal;font-stretch:normal;line-height:161.00000143%;font-family:'Fira Sans';-inkscape-font-specification:'Fira Sans';text-align:start;text-anchor:start;fill:#535557;fill-opacity:1"
         id="path4581"
         inkscape:connector-curvature="0" />
      <path
         d="m -300.17508,650.61125 c -1.43627,0 -2.41899,1.02051 -2.41899,2.38119 0,1.32289 0.98272,2.3434 2.41899,2.3434 1.47407,0 2.45678,-1.02051 2.45678,-2.3434 0,-1.36068 -0.98271,-2.38119 -2.45678,-2.38119 z m 1.77644,9.56256 -3.47729,0 0,19.91884 3.47729,0 0,-19.91884 z"
         style="font-style:normal;font-variant:normal;font-weight:normal;font-stretch:normal;line-height:161.00000143%;font-family:'Fira Sans';-inkscape-font-specification:'Fira Sans';text-align:start;text-anchor:start;fill:#535557;fill-opacity:1"
         id="path4583"
         inkscape:connector-curvature="0" />
      <path
         d="m -283.76188,659.72025 c -5.6695,0 -8.92001,4.27102 -8.92001,10.43188 0,6.31204 3.21271,10.39408 8.88221,10.39408 5.63171,0 8.88222,-4.27102 8.88222,-10.43188 0,-6.31204 -3.17492,-10.39408 -8.84442,-10.39408 z m 0,2.79695 c 3.28831,0 5.10255,2.41899 5.10255,7.59713 0,5.21594 -1.81424,7.63493 -5.14035,7.63493 -3.3261,0 -5.14034,-2.41899 -5.14034,-7.59713 0,-5.21594 1.85203,-7.63493 5.17814,-7.63493 z"
         style="font-style:normal;font-variant:normal;font-weight:normal;font-stretch:normal;line-height:161.00000143%;font-family:'Fira Sans';-inkscape-font-specification:'Fira Sans';text-align:start;text-anchor:start;fill:#535557;fill-opacity:1"
         id="path4585"
         inkscape:connector-curvature="0" />
      <path
         d="m -259.79939,659.72025 c -2.60797,0 -4.72458,1.36068 -6.08526,3.4017 l -0.30237,-2.94814 -2.98594,0 0,19.91884 3.4773,0 0,-14.13595 c 1.32288,-2.11661 2.83474,-3.51509 5.06475,-3.51509 1.92763,0 3.13712,0.86932 3.13712,3.85526 l 0,13.79578 3.47729,0 0,-14.28714 c 0,-3.77966 -2.11661,-6.08526 -5.78289,-6.08526 z"
         style="font-style:normal;font-variant:normal;font-weight:normal;font-stretch:normal;line-height:161.00000143%;font-family:'Fira Sans';-inkscape-font-specification:'Fira Sans';text-align:start;text-anchor:start;fill:#535557;fill-opacity:1"
         id="path4587"
         inkscape:connector-curvature="0" />
      <path
         d="m -241.62155,659.72025 c -4.11984,0 -7.18137,2.3056 -7.18137,5.48052 0,2.79695 1.70085,4.64899 6.00967,5.78289 3.85526,1.02051 4.83798,1.77644 4.83798,3.74186 0,1.88984 -1.66306,3.02374 -4.27103,3.02374 -2.15441,0 -4.00644,-0.71814 -5.5939,-1.92763 l -1.85204,2.11661 c 1.73865,1.51187 4.15763,2.60797 7.52154,2.60797 4.04424,0 7.8617,-1.88983 7.8617,-6.04747 0,-3.47729 -2.41898,-5.14034 -6.61441,-6.19865 -3.21272,-0.83152 -4.27103,-1.58746 -4.27103,-3.21271 0,-1.58746 1.39848,-2.60797 3.66628,-2.60797 1.85204,0 3.4017,0.56695 5.17814,1.70085 l 1.47407,-2.19221 c -1.88983,-1.43627 -3.96865,-2.2678 -6.7656,-2.2678 z"
         style="font-style:normal;font-variant:normal;font-weight:normal;font-stretch:normal;line-height:161.00000143%;font-family:'Fira Sans';-inkscape-font-specification:'Fira Sans';text-align:start;text-anchor:start;fill:#535557;fill-opacity:1"
         id="path4589"
         inkscape:connector-curvature="0" />
      <path
         d="m -228.47598,675.29247 c -1.47407,0 -2.60797,1.1717 -2.60797,2.60797 0,0.90712 0.41576,1.70085 1.0583,2.19221 l -1.51186,6.27425 2.49458,0 2.53237,-5.78289 c 0.49136,-1.09611 0.68034,-1.85204 0.68034,-2.68357 0,-1.43627 -1.1339,-2.60797 -2.64576,-2.60797 z"
         style="font-style:normal;font-variant:normal;font-weight:normal;font-stretch:normal;line-height:161.00000143%;font-family:'Fira Sans';-inkscape-font-specification:'Fira Sans';text-align:start;text-anchor:start;fill:#535557;fill-opacity:1"
         id="path4591"
         inkscape:connector-curvature="0" />
      <path
         d="m -631.58098,736.29629 0,-9.10899 c 0,-4.15764 -2.1922,-6.61442 -6.99238,-6.61442 -2.23,0 -4.42221,0.45356 -6.87899,1.36068 l 0.86932,2.53238 c 2.04102,-0.68034 3.89306,-1.05831 5.36713,-1.05831 2.75915,0 4.15763,1.05831 4.15763,3.93085 l 0,1.47407 -3.06153,0 c -5.55611,0 -8.76883,2.3056 -8.76883,6.57662 0,3.55289 2.38119,6.00967 6.34984,6.00967 2.41899,0 4.5356,-0.90712 5.93408,-2.98593 0.60475,1.96542 1.88983,2.75915 3.89306,2.98593 l 0.79373,-2.41898 c -1.02051,-0.37797 -1.66306,-0.94492 -1.66306,-2.68357 z m -8.16408,2.49458 c -2.2678,0 -3.43949,-1.24729 -3.43949,-3.59068 0,-2.72136 1.85203,-4.08204 5.51831,-4.08204 l 2.60797,0 0,4.5734 c -1.1339,2.07881 -2.64577,3.09932 -4.68679,3.09932 z"
         style="font-style:normal;font-variant:normal;font-weight:normal;font-stretch:normal;line-height:161.00000143%;font-family:'Fira Sans';-inkscape-font-specification:'Fira Sans';text-align:start;text-anchor:start;fill:#535557;fill-opacity:1"
         id="path4593"
         inkscape:connector-curvature="0" />
      <path
         d="m -617.14561,720.57288 c -5.40492,0 -8.69323,4.23323 -8.69323,10.58307 0,6.42543 3.32611,10.24289 8.69323,10.24289 2.3056,0 4.30882,-0.75593 6.08527,-2.1922 l -1.58746,-2.2678 c -1.51187,0.98271 -2.68357,1.51186 -4.34662,1.51186 -3.13712,0 -5.10255,-2.15441 -5.10255,-7.37035 0,-5.17814 1.96543,-7.63492 5.10255,-7.63492 1.66305,0 2.91034,0.49135 4.27102,1.47407 l 1.66306,-2.19221 c -1.85204,-1.54966 -3.74187,-2.15441 -6.08527,-2.15441 z"
         style="font-style:normal;font-variant:normal;font-weight:normal;font-stretch:normal;line-height:161.00000143%;font-family:'Fira Sans';-inkscape-font-specification:'Fira Sans';text-align:start;text-anchor:start;fill:#535557;fill-opacity:1"
         id="path4595"
         inkscape:connector-curvature="0" />
      <path
         d="m -597.58524,737.65697 c -0.98271,0.60475 -1.77644,0.86933 -2.64577,0.86933 -1.73864,0 -2.38119,-0.94492 -2.38119,-2.94814 l 0,-11.86816 4.34662,0 0.37797,-2.68356 -4.72459,0 0,-4.91357 -3.47729,0.41577 0,4.4978 -3.47729,0 0,2.68356 3.47729,0 0,12.01934 c 0,3.70408 2.00322,5.6695 5.36713,5.6695 1.70085,0 3.13712,-0.45356 4.46,-1.36068 l -1.32288,-2.38119 z"
         style="font-style:normal;font-variant:normal;font-weight:normal;font-stretch:normal;line-height:161.00000143%;font-family:'Fira Sans';-inkscape-font-specification:'Fira Sans';text-align:start;text-anchor:start;fill:#535557;fill-opacity:1"
         id="path4597"
         inkscape:connector-curvature="0" />
      <path
         d="m -590.95842,711.46388 c -1.43627,0 -2.41899,1.02051 -2.41899,2.38119 0,1.32289 0.98272,2.3434 2.41899,2.3434 1.47407,0 2.45678,-1.02051 2.45678,-2.3434 0,-1.36068 -0.98271,-2.38119 -2.45678,-2.38119 z m 1.77644,9.56256 -3.47729,0 0,19.91884 3.47729,0 0,-19.91884 z"
         style="font-style:normal;font-variant:normal;font-weight:normal;font-stretch:normal;line-height:161.00000143%;font-family:'Fira Sans';-inkscape-font-specification:'Fira Sans';text-align:start;text-anchor:start;fill:#535557;fill-opacity:1"
         id="path4599"
         inkscape:connector-curvature="0" />
      <path
         d="m -567.40165,721.02644 -3.66628,0 -5.17814,16.81952 -5.21594,-16.81952 -3.77967,0 6.879,19.91884 4.19543,0 6.7656,-19.91884 z"
         style="font-style:normal;font-variant:normal;font-weight:normal;font-stretch:normal;line-height:161.00000143%;font-family:'Fira Sans';-inkscape-font-specification:'Fira Sans';text-align:start;text-anchor:start;fill:#535557;fill-opacity:1"
         id="path4601"
         inkscape:connector-curvature="0" />
      <path
         d="m -561.72506,711.46388 c -1.43627,0 -2.41899,1.02051 -2.41899,2.38119 0,1.32289 0.98272,2.3434 2.41899,2.3434 1.47407,0 2.45678,-1.02051 2.45678,-2.3434 0,-1.36068 -0.98271,-2.38119 -2.45678,-2.38119 z m 1.77644,9.56256 -3.47729,0 0,19.91884 3.47729,0 0,-19.91884 z"
         style="font-style:normal;font-variant:normal;font-weight:normal;font-stretch:normal;line-height:161.00000143%;font-family:'Fira Sans';-inkscape-font-specification:'Fira Sans';text-align:start;text-anchor:start;fill:#535557;fill-opacity:1"
         id="path4603"
         inkscape:connector-curvature="0" />
      <path
         d="m -544.06457,737.65697 c -0.98271,0.60475 -1.77644,0.86933 -2.64577,0.86933 -1.73864,0 -2.38119,-0.94492 -2.38119,-2.94814 l 0,-11.86816 4.34662,0 0.37797,-2.68356 -4.72459,0 0,-4.91357 -3.47729,0.41577 0,4.4978 -3.47729,0 0,2.68356 3.47729,0 0,12.01934 c 0,3.70408 2.00322,5.6695 5.36713,5.6695 1.70085,0 3.13712,-0.45356 4.46,-1.36068 l -1.32288,-2.38119 z"
         style="font-style:normal;font-variant:normal;font-weight:normal;font-stretch:normal;line-height:161.00000143%;font-family:'Fira Sans';-inkscape-font-specification:'Fira Sans';text-align:start;text-anchor:start;fill:#535557;fill-opacity:1"
         id="path4605"
         inkscape:connector-curvature="0" />
      <path
         d="m -537.43775,711.46388 c -1.43628,0 -2.41899,1.02051 -2.41899,2.38119 0,1.32289 0.98271,2.3434 2.41899,2.3434 1.47407,0 2.45678,-1.02051 2.45678,-2.3434 0,-1.36068 -0.98271,-2.38119 -2.45678,-2.38119 z m 1.77644,9.56256 -3.47729,0 0,19.91884 3.47729,0 0,-19.91884 z"
         style="font-style:normal;font-variant:normal;font-weight:normal;font-stretch:normal;line-height:161.00000143%;font-family:'Fira Sans';-inkscape-font-specification:'Fira Sans';text-align:start;text-anchor:start;fill:#535557;fill-opacity:1"
         id="path4607"
         inkscape:connector-curvature="0" />
      <path
         d="m -513.46522,730.40001 c 0,-6.08526 -2.83475,-9.82713 -8.20188,-9.82713 -5.14034,0 -8.27747,4.42221 -8.27747,10.62086 0,6.31205 3.25052,10.2051 8.80663,10.2051 2.75915,0 4.98916,-0.94491 6.95458,-2.49458 l -1.51186,-2.07881 c -1.73865,1.20949 -3.21272,1.73864 -5.17815,1.73864 -2.87254,0 -5.02695,-1.77644 -5.36712,-6.38763 l 12.69968,0 c 0.0378,-0.45356 0.0756,-1.09611 0.0756,-1.77645 z m -3.4395,-0.79373 -9.33577,0 c 0.26457,-4.42221 2.00322,-6.27424 4.64899,-6.27424 3.13712,0 4.68678,2.15441 4.68678,6.04746 l 0,0.22678 z"
         style="font-style:normal;font-variant:normal;font-weight:normal;font-stretch:normal;line-height:161.00000143%;font-family:'Fira Sans';-inkscape-font-specification:'Fira Sans';text-align:start;text-anchor:start;fill:#535557;fill-opacity:1"
         id="path4609"
         inkscape:connector-curvature="0" />
      <path
         d="m -502.28567,720.57288 c -4.11984,0 -7.18137,2.3056 -7.18137,5.48052 0,2.79695 1.70085,4.64899 6.00967,5.78289 3.85526,1.02051 4.83797,1.77644 4.83797,3.74187 0,1.88983 -1.66305,3.02373 -4.27102,3.02373 -2.15441,0 -4.00645,-0.71814 -5.59391,-1.92763 l -1.85203,2.11661 c 1.73864,1.51187 4.15763,2.60797 7.52153,2.60797 4.04425,0 7.86171,-1.88983 7.86171,-6.04746 0,-3.4773 -2.41899,-5.14035 -6.61442,-6.19866 -3.21271,-0.83152 -4.27102,-1.58746 -4.27102,-3.21271 0,-1.58746 1.39848,-2.60797 3.66628,-2.60797 1.85203,0 3.4017,0.56695 5.17814,1.70085 l 1.47407,-2.19221 c -1.88983,-1.43627 -3.96865,-2.2678 -6.7656,-2.2678 z"
         style="font-style:normal;font-variant:normal;font-weight:normal;font-stretch:normal;line-height:161.00000143%;font-family:'Fira Sans';-inkscape-font-specification:'Fira Sans';text-align:start;text-anchor:start;fill:#535557;fill-opacity:1"
         id="path4611"
         inkscape:connector-curvature="0" />
      <path
         d="m -466.58968,736.29629 0,-9.10899 c 0,-4.15764 -2.1922,-6.61442 -6.99238,-6.61442 -2.23,0 -4.42221,0.45356 -6.87899,1.36068 l 0.86932,2.53238 c 2.04102,-0.68034 3.89306,-1.05831 5.36713,-1.05831 2.75915,0 4.15763,1.05831 4.15763,3.93085 l 0,1.47407 -3.06153,0 c -5.55611,0 -8.76883,2.3056 -8.76883,6.57662 0,3.55289 2.38119,6.00967 6.34984,6.00967 2.41899,0 4.5356,-0.90712 5.93408,-2.98593 0.60475,1.96542 1.88983,2.75915 3.89306,2.98593 l 0.79373,-2.41898 c -1.02051,-0.37797 -1.66306,-0.94492 -1.66306,-2.68357 z m -8.16408,2.49458 c -2.2678,0 -3.43949,-1.24729 -3.43949,-3.59068 0,-2.72136 1.85203,-4.08204 5.51831,-4.08204 l 2.60797,0 0,4.5734 c -1.1339,2.07881 -2.64577,3.09932 -4.68679,3.09932 z"
         style="font-style:normal;font-variant:normal;font-weight:normal;font-stretch:normal;line-height:161.00000143%;font-family:'Fira Sans';-inkscape-font-specification:'Fira Sans';text-align:start;text-anchor:start;fill:#535557;fill-opacity:1"
         id="path4613"
         inkscape:connector-curvature="0" />
      <path
         d="m -450.0377,720.57288 c -2.60797,0 -4.72458,1.36068 -6.08526,3.4017 l -0.30237,-2.94814 -2.98594,0 0,19.91884 3.47729,0 0,-14.13595 c 1.32289,-2.11661 2.83475,-3.51509 5.06476,-3.51509 1.92763,0 3.13712,0.86932 3.13712,3.85526 l 0,13.79578 3.47729,0 0,-14.28714 c 0,-3.77966 -2.11661,-6.08526 -5.78289,-6.08526 z"
         style="font-style:normal;font-variant:normal;font-weight:normal;font-stretch:normal;line-height:161.00000143%;font-family:'Fira Sans';-inkscape-font-specification:'Fira Sans';text-align:start;text-anchor:start;fill:#535557;fill-opacity:1"
         id="path4615"
         inkscape:connector-curvature="0" />
      <path
         d="m -425.32104,712.59778 0,10.43188 c -1.32288,-1.39847 -3.02373,-2.45678 -5.36713,-2.45678 -4.87577,0 -7.82391,4.42221 -7.82391,10.50747 0,6.19866 2.68357,10.31849 7.52154,10.31849 2.45678,0 4.46001,-1.20949 5.74509,-3.21271 l 0.34017,2.75915 3.06153,0 0,-27.93173 -3.47729,-0.41577 z m -4.91357,26.04191 c -2.87254,0 -4.5356,-2.38119 -4.5356,-7.63493 0,-5.17814 1.85204,-7.67272 4.83798,-7.67272 1.96542,0 3.3639,1.02051 4.61119,2.60797 l 0,9.75154 c -1.32288,1.85203 -2.68356,2.94814 -4.91357,2.94814 z"
         style="font-style:normal;font-variant:normal;font-weight:normal;font-stretch:normal;line-height:161.00000143%;font-family:'Fira Sans';-inkscape-font-specification:'Fira Sans';text-align:start;text-anchor:start;fill:#535557;fill-opacity:1"
         id="path4617"
         inkscape:connector-curvature="0" />
      <path
         d="m -395.48883,720.57288 c -2.2678,0 -4.42221,1.0961 -5.89628,3.13712 l -0.26457,-2.68356 -2.98594,0 0,27.96953 3.47729,-0.41576 0,-9.44917 c 1.28509,1.54967 3.06153,2.2678 5.21594,2.2678 5.14035,0 7.82391,-4.38441 7.82391,-10.43188 0,-6.27424 -2.07881,-10.39408 -7.37035,-10.39408 z m -1.28508,17.99121 c -1.81424,0 -3.36391,-0.86932 -4.38442,-2.41898 l 0,-9.71375 c 1.05831,-1.58746 2.68357,-3.09932 4.80018,-3.09932 2.98594,0 4.4978,2.45678 4.4978,7.63492 0,5.21594 -1.73864,7.59713 -4.91356,7.59713 z"
         style="font-style:normal;font-variant:normal;font-weight:normal;font-stretch:normal;line-height:161.00000143%;font-family:'Fira Sans';-inkscape-font-specification:'Fira Sans';text-align:start;text-anchor:start;fill:#535557;fill-opacity:1"
         id="path4619"
         inkscape:connector-curvature="0" />
      <path
         d="m -373.53843,720.57288 c -2.41898,0 -4.27102,1.51187 -5.32933,4.4978 l -0.34017,-4.04424 -2.98593,0 0,19.91884 3.47729,0 0,-11.37679 c 0.83153,-3.81747 2.2678,-5.59391 4.76238,-5.59391 0.71814,0 1.1339,0.0756 1.73865,0.22678 l 0.64254,-3.4017 c -0.60475,-0.15119 -1.32288,-0.22678 -1.96543,-0.22678 z"
         style="font-style:normal;font-variant:normal;font-weight:normal;font-stretch:normal;line-height:161.00000143%;font-family:'Fira Sans';-inkscape-font-specification:'Fira Sans';text-align:start;text-anchor:start;fill:#535557;fill-opacity:1"
         id="path4621"
         inkscape:connector-curvature="0" />
      <path
         d="m -360.46253,720.57288 c -5.6695,0 -8.92002,4.27102 -8.92002,10.43188 0,6.31204 3.21272,10.39408 8.88222,10.39408 5.6317,0 8.88222,-4.27102 8.88222,-10.43188 0,-6.31204 -3.17492,-10.39408 -8.84442,-10.39408 z m 0,2.79695 c 3.28831,0 5.10255,2.41899 5.10255,7.59713 0,5.21594 -1.81424,7.63493 -5.14035,7.63493 -3.32611,0 -5.14035,-2.41899 -5.14035,-7.59713 0,-5.21594 1.85204,-7.63493 5.17815,-7.63493 z"
         style="font-style:normal;font-variant:normal;font-weight:normal;font-stretch:normal;line-height:161.00000143%;font-family:'Fira Sans';-inkscape-font-specification:'Fira Sans';text-align:start;text-anchor:start;fill:#535557;fill-opacity:1"
         id="path4623"
         inkscape:connector-curvature="0" />
      <path
         d="m -336.76461,720.57288 c -2.41899,0 -4.27103,1.0961 -5.63171,2.94814 l 0,-10.92324 -3.47729,0.41577 0,27.93173 3.06153,0 0.34017,-2.1922 c 1.36068,1.66305 3.09933,2.64576 5.29153,2.64576 4.83797,0 7.82391,-4.19543 7.82391,-10.43188 0,-6.65221 -2.91034,-10.39408 -7.40814,-10.39408 z m -1.24729,18.06681 c -1.77645,0 -3.36391,-1.09611 -4.38442,-2.68357 l 0,-9.52476 c 1.02051,-1.58746 2.45679,-3.09932 4.64899,-3.09932 2.79696,0 4.64899,1.96542 4.64899,7.63492 0,5.44272 -2.00322,7.67273 -4.91356,7.67273 z"
         style="font-style:normal;font-variant:normal;font-weight:normal;font-stretch:normal;line-height:161.00000143%;font-family:'Fira Sans';-inkscape-font-specification:'Fira Sans';text-align:start;text-anchor:start;fill:#535557;fill-opacity:1"
         id="path4625"
         inkscape:connector-curvature="0" />
      <path
         d="m -319.46319,741.39884 c 1.02051,0 2.00322,-0.26457 2.75916,-0.68034 l -0.90712,-2.41898 c -0.37797,0.15118 -0.79373,0.22678 -1.28509,0.22678 -0.90712,0 -1.24729,-0.52916 -1.24729,-1.58746 l 0,-24.34106 -3.47729,0.41577 0,24.00088 c 0,2.83475 1.62525,4.38441 4.15763,4.38441 z"
         style="font-style:normal;font-variant:normal;font-weight:normal;font-stretch:normal;line-height:161.00000143%;font-family:'Fira Sans';-inkscape-font-specification:'Fira Sans';text-align:start;text-anchor:start;fill:#535557;fill-opacity:1"
         id="path4627"
         inkscape:connector-curvature="0" />
      <path
         d="m -297.68463,730.40001 c 0,-6.08526 -2.83475,-9.82713 -8.20188,-9.82713 -5.14035,0 -8.27747,4.42221 -8.27747,10.62086 0,6.31205 3.25051,10.2051 8.80662,10.2051 2.75916,0 4.98916,-0.94491 6.95459,-2.49458 l -1.51187,-2.07881 c -1.73864,1.20949 -3.21271,1.73864 -5.17814,1.73864 -2.87255,0 -5.02696,-1.77644 -5.36713,-6.38763 l 12.69968,0 c 0.0378,-0.45356 0.0756,-1.09611 0.0756,-1.77645 z m -3.4395,-0.79373 -9.33578,0 c 0.26458,-4.42221 2.00323,-6.27424 4.64899,-6.27424 3.13713,0 4.68679,2.15441 4.68679,6.04746 l 0,0.22678 z"
         style="font-style:normal;font-variant:normal;font-weight:normal;font-stretch:normal;line-height:161.00000143%;font-family:'Fira Sans';-inkscape-font-specification:'Fira Sans';text-align:start;text-anchor:start;fill:#535557;fill-opacity:1"
         id="path4629"
         inkscape:connector-curvature="0" />
      <path
         d="m -271.91558,720.57288 c -2.68357,0 -4.49781,1.43627 -5.93408,3.59068 -0.75593,-2.2678 -2.57017,-3.59068 -5.02696,-3.59068 -2.60797,0 -4.42221,1.36068 -5.74509,3.3639 l -0.30237,-2.91034 -2.98594,0 0,19.91884 3.47729,0 0,-14.13595 c 1.32289,-2.11661 2.53238,-3.51509 4.68679,-3.51509 1.51187,0 2.79695,0.86932 2.79695,3.85526 l 0,13.79578 3.4773,0 0,-14.13595 c 1.36068,-2.11661 2.53237,-3.51509 4.68678,-3.51509 1.51187,0 2.79696,0.86932 2.79696,3.85526 l 0,13.79578 3.47729,0 0,-14.28714 c 0,-3.74187 -2.15441,-6.08526 -5.40492,-6.08526 z"
         style="font-style:normal;font-variant:normal;font-weight:normal;font-stretch:normal;line-height:161.00000143%;font-family:'Fira Sans';-inkscape-font-specification:'Fira Sans';text-align:start;text-anchor:start;fill:#535557;fill-opacity:1"
         id="path4631"
         inkscape:connector-curvature="0" />
      <path
         d="m -254.09741,720.57288 c -4.11984,0 -7.18137,2.3056 -7.18137,5.48052 0,2.79695 1.70085,4.64899 6.00967,5.78289 3.85526,1.02051 4.83798,1.77644 4.83798,3.74187 0,1.88983 -1.66306,3.02373 -4.27103,3.02373 -2.15441,0 -4.00644,-0.71814 -5.5939,-1.92763 l -1.85204,2.11661 c 1.73865,1.51187 4.15763,2.60797 7.52154,2.60797 4.04424,0 7.8617,-1.88983 7.8617,-6.04746 0,-3.4773 -2.41898,-5.14035 -6.61441,-6.19866 -3.21272,-0.83152 -4.27103,-1.58746 -4.27103,-3.21271 0,-1.58746 1.39848,-2.60797 3.66628,-2.60797 1.85204,0 3.4017,0.56695 5.17814,1.70085 l 1.47407,-2.19221 c -1.88983,-1.43627 -3.96865,-2.2678 -6.7656,-2.2678 z"
         style="font-style:normal;font-variant:normal;font-weight:normal;font-stretch:normal;line-height:161.00000143%;font-family:'Fira Sans';-inkscape-font-specification:'Fira Sans';text-align:start;text-anchor:start;fill:#535557;fill-opacity:1"
         id="path4633"
         inkscape:connector-curvature="0" />
      <path
         d="m -224.33549,720.57288 c -5.6695,0 -8.92001,4.27102 -8.92001,10.43188 0,6.31204 3.21271,10.39408 8.88221,10.39408 5.63171,0 8.88222,-4.27102 8.88222,-10.43188 0,-6.31204 -3.17492,-10.39408 -8.84442,-10.39408 z m 0,2.79695 c 3.28831,0 5.10255,2.41899 5.10255,7.59713 0,5.21594 -1.81424,7.63493 -5.14035,7.63493 -3.3261,0 -5.14034,-2.41899 -5.14034,-7.59713 0,-5.21594 1.85203,-7.63493 5.17814,-7.63493 z"
         style="font-style:normal;font-variant:normal;font-weight:normal;font-stretch:normal;line-height:161.00000143%;font-family:'Fira Sans';-inkscape-font-specification:'Fira Sans';text-align:start;text-anchor:start;fill:#535557;fill-opacity:1"
         id="path4635"
         inkscape:connector-curvature="0" />
      <path
         d="m -202.98096,715.39474 c 1.02051,0 2.1922,0.18898 3.47729,0.75593 l 1.0961,-2.53238 c -1.58746,-0.68034 -2.87254,-1.02051 -4.76238,-1.02051 -4.04424,0 -6.23645,2.38119 -6.23645,5.7073 l 0,2.72136 -3.55288,0 0,2.68356 3.55288,0 0,17.23528 3.4773,0 0,-17.23528 4.46,0 0.37797,-2.68356 -4.83797,0 0,-2.75916 c 0,-1.92763 0.75593,-2.87254 2.94814,-2.87254 z"
         style="font-style:normal;font-variant:normal;font-weight:normal;font-stretch:normal;line-height:161.00000143%;font-family:'Fira Sans';-inkscape-font-specification:'Fira Sans';text-align:start;text-anchor:start;fill:#535557;fill-opacity:1"
         id="path4637"
         inkscape:connector-curvature="0" />
      <path
         d="m -172.19321,721.02644 -3.4773,0 0,14.21155 c -1.20949,2.00322 -2.83475,3.43949 -4.98916,3.43949 -2.15441,0 -3.06153,-1.02051 -3.06153,-3.74187 l 0,-13.90917 -3.47729,0 0,14.28714 c 0,3.89306 2.07882,6.08526 5.55611,6.08526 2.83475,0 4.68679,-1.1339 6.19865,-3.55288 l 0.26458,3.09932 2.98594,0 0,-19.91884 z"
         style="font-style:normal;font-variant:normal;font-weight:normal;font-stretch:normal;line-height:161.00000143%;font-family:'Fira Sans';-inkscape-font-specification:'Fira Sans';text-align:start;text-anchor:start;fill:#535557;fill-opacity:1"
         id="path4639"
         inkscape:connector-curvature="0" />
      <path
         d="m -159.60574,720.57288 c -4.11984,0 -7.18137,2.3056 -7.18137,5.48052 0,2.79695 1.70085,4.64899 6.00967,5.78289 3.85526,1.02051 4.83797,1.77644 4.83797,3.74187 0,1.88983 -1.66305,3.02373 -4.27102,3.02373 -2.15441,0 -4.00645,-0.71814 -5.59391,-1.92763 l -1.85203,2.11661 c 1.73864,1.51187 4.15763,2.60797 7.52153,2.60797 4.04425,0 7.86171,-1.88983 7.86171,-6.04746 0,-3.4773 -2.41899,-5.14035 -6.61442,-6.19866 -3.21271,-0.83152 -4.27102,-1.58746 -4.27102,-3.21271 0,-1.58746 1.39848,-2.60797 3.66628,-2.60797 1.85203,0 3.4017,0.56695 5.17814,1.70085 l 1.47407,-2.19221 c -1.88983,-1.43627 -3.96865,-2.2678 -6.7656,-2.2678 z"
         style="font-style:normal;font-variant:normal;font-weight:normal;font-stretch:normal;line-height:161.00000143%;font-family:'Fira Sans';-inkscape-font-specification:'Fira Sans';text-align:start;text-anchor:start;fill:#535557;fill-opacity:1"
         id="path4641"
         inkscape:connector-curvature="0" />
      <path
         d="m -132.32422,730.40001 c 0,-6.08526 -2.83475,-9.82713 -8.20188,-9.82713 -5.14034,0 -8.27747,4.42221 -8.27747,10.62086 0,6.31205 3.25052,10.2051 8.80663,10.2051 2.75915,0 4.98916,-0.94491 6.95458,-2.49458 l -1.51186,-2.07881 c -1.73865,1.20949 -3.21272,1.73864 -5.17815,1.73864 -2.87254,0 -5.02695,-1.77644 -5.36712,-6.38763 l 12.69968,0 c 0.0378,-0.45356 0.0756,-1.09611 0.0756,-1.77645 z m -3.4395,-0.79373 -9.33577,0 c 0.26457,-4.42221 2.00322,-6.27424 4.64899,-6.27424 3.13712,0 4.68678,2.15441 4.68678,6.04746 l 0,0.22678 z"
         style="font-style:normal;font-variant:normal;font-weight:normal;font-stretch:normal;line-height:161.00000143%;font-family:'Fira Sans';-inkscape-font-specification:'Fira Sans';text-align:start;text-anchor:start;fill:#535557;fill-opacity:1"
         id="path4643"
         inkscape:connector-curvature="0" />
      <path
         d="m -117.8942,720.57288 c -2.41899,0 -4.27102,1.51187 -5.32933,4.4978 l -0.34017,-4.04424 -2.98594,0 0,19.91884 3.4773,0 0,-11.37679 c 0.83152,-3.81747 2.2678,-5.59391 4.76238,-5.59391 0.71813,0 1.1339,0.0756 1.73864,0.22678 l 0.64255,-3.4017 c -0.60475,-0.15119 -1.32289,-0.22678 -1.96543,-0.22678 z"
         style="font-style:normal;font-variant:normal;font-weight:normal;font-stretch:normal;line-height:161.00000143%;font-family:'Fira Sans';-inkscape-font-specification:'Fira Sans';text-align:start;text-anchor:start;fill:#535557;fill-opacity:1"
         id="path4645"
         inkscape:connector-curvature="0" />
      <path
         d="m -106.89709,720.57288 c -4.11984,0 -7.18137,2.3056 -7.18137,5.48052 0,2.79695 1.70085,4.64899 6.00967,5.78289 3.85526,1.02051 4.83797,1.77644 4.83797,3.74187 0,1.88983 -1.66305,3.02373 -4.27102,3.02373 -2.15441,0 -4.00645,-0.71814 -5.59391,-1.92763 l -1.85203,2.11661 c 1.73864,1.51187 4.15763,2.60797 7.52153,2.60797 4.04425,0 7.861709,-1.88983 7.861709,-6.04746 0,-3.4773 -2.418989,-5.14035 -6.614419,-6.19866 -3.21271,-0.83152 -4.27102,-1.58746 -4.27102,-3.21271 0,-1.58746 1.39848,-2.60797 3.66628,-2.60797 1.85203,0 3.4017,0.56695 5.17814,1.70085 l 1.47407,-2.19221 c -1.88983,-1.43627 -3.96865,-2.2678 -6.7656,-2.2678 z"
         style="font-style:normal;font-variant:normal;font-weight:normal;font-stretch:normal;line-height:161.00000143%;font-family:'Fira Sans';-inkscape-font-specification:'Fira Sans';text-align:start;text-anchor:start;fill:#535557;fill-opacity:1"
         id="path4647"
         inkscape:connector-curvature="0" />
      <path
         d="m -93.751525,736.14511 c -1.47407,0 -2.60797,1.17169 -2.60797,2.60797 0,1.47407 1.1339,2.64576 2.60797,2.64576 1.511866,0 2.645766,-1.17169 2.645766,-2.64576 0,-1.43628 -1.1339,-2.60797 -2.645766,-2.60797 z"
         style="font-style:normal;font-variant:normal;font-weight:normal;font-stretch:normal;line-height:161.00000143%;font-family:'Fira Sans';-inkscape-font-specification:'Fira Sans';text-align:start;text-anchor:start;fill:#535557;fill-opacity:1"
         id="path4649"
         inkscape:connector-curvature="0" />
    </g>
    <g
       style="color:#000000;font-style:normal;font-variant:normal;font-weight:normal;font-stretch:normal;font-size:88.65029907px;line-height:215.00000954%;font-family:'Fira Sans';-inkscape-font-specification:'Fira Sans';text-indent:0;text-align:start;text-decoration:none;text-decoration-line:none;letter-spacing:0px;word-spacing:0px;text-transform:none;direction:ltr;block-progression:tb;writing-mode:lr-tb;baseline-shift:baseline;text-anchor:start;display:inline;overflow:visible;visibility:visible;fill:#476885;fill-opacity:1;fill-rule:nonzero;stroke:none;stroke-width:1px;stroke-linecap:butt;stroke-linejoin:miter;stroke-opacity:1;marker:none;enable-background:accumulate"
       id="text4446"
       transform="translate(714.28571,8.5714286)">
      <path
         d="m -627.7175,319.71432 5,0 -11,-34.45 -6,0 -11.05,34.45 4.8,0 2.6,-8.65 13.05,0 2.6,8.65 z m -14.5,-12.5 5.4,-18 5.35,18 -10.75,0 z"
         style="font-style:normal;font-variant:normal;font-weight:normal;font-stretch:normal;font-size:50px;line-height:179.99999523%;font-family:'Fira Sans';-inkscape-font-specification:'Fira Sans';text-align:start;text-anchor:start;fill:#476885;fill-opacity:1"
         id="path4482"
         inkscape:connector-curvature="0" />
      <path
         d="m -588.97297,301.51432 c 3.35,-0.7 6.45,-3.3 6.45,-7.55 0,-6 -5,-8.7 -13.5,-8.7 l -8.15,0 0,34.45 9.5,0 c 8,0 13.65,-2.5 13.65,-9.8 0,-5.85 -3.95,-7.7 -7.95,-8.4 z m -6.55,-12.5 c 5.1,0 8.15,1.05 8.15,5.3 0,3.65 -3,5.55 -6.85,5.55 l -5.2,0 0,-10.85 3.9,0 z m 0.85,26.9 -4.75,0 0,-12.4 5.65,0 c 4.15,0 7.75,1.55 7.75,6.4 0,5 -3.65,6 -8.65,6 z"
         style="font-style:normal;font-variant:normal;font-weight:normal;font-stretch:normal;font-size:50px;line-height:179.99999523%;font-family:'Fira Sans';-inkscape-font-specification:'Fira Sans';text-align:start;text-anchor:start;fill:#476885;fill-opacity:1"
         id="path4484"
         inkscape:connector-curvature="0" />
      <path
         d="m -554.15188,305.76432 c 0,-8.05 -3.75,-13 -10.85,-13 -6.8,0 -10.95,5.85 -10.95,14.05 0,8.35 4.3,13.5 11.65,13.5 3.65,0 6.6,-1.25 9.2,-3.3 l -2,-2.75 c -2.3,1.6 -4.25,2.3 -6.85,2.3 -3.8,0 -6.65,-2.35 -7.1,-8.45 l 16.8,0 c 0.05,-0.6 0.1,-1.45 0.1,-2.35 z m -4.55,-1.05 -12.35,0 c 0.35,-5.85 2.65,-8.3 6.15,-8.3 4.15,0 6.2,2.85 6.2,8 l 0,0.3 z"
         style="font-style:normal;font-variant:normal;font-weight:normal;font-stretch:normal;font-size:50px;line-height:179.99999523%;font-family:'Fira Sans';-inkscape-font-specification:'Fira Sans';text-align:start;text-anchor:start;fill:#476885;fill-opacity:1"
         id="path4486"
         inkscape:connector-curvature="0" />
      <path
         d="m -526.61282,290.41432 c -3.1,1.4 -5.5,2.5 -12.05,2.35 -5.8,0 -10.15,3.8 -10.15,9.2 0,3.4 1.4,5.7 4.45,7.3 -1.9,1.25 -2.9,2.95 -2.9,4.65 0,2.65 2.1,5 6.8,5 l 4.15,0 c 3.3,0 5.3,1.25 5.3,3.75 0,2.65 -2,4.1 -7.7,4.1 -5.8,0 -7.15,-1.4 -7.15,-4.4 l -4.15,0 c 0,5.35 2.7,8 11.3,8 8.15,0 12.35,-2.9 12.35,-8 0,-4.2 -3.6,-7.3 -9,-7.3 l -4.2,0 c -2.7,0 -3.45,-0.95 -3.45,-2.15 0,-0.95 0.55,-1.9 1.3,-2.45 1.1,0.35 2.15,0.5 3.35,0.5 6.3,0 10.05,-3.75 10.05,-8.95 0,-3.05 -1.55,-5.25 -4.65,-6.65 3,0 5.5,-0.1 7.7,-0.8 l -1.35,-4.15 z m -12.05,5.65 c 3.75,0 5.65,2 5.65,5.85 0,3.8 -1.95,6 -5.55,6 -3.6,0 -5.55,-2.45 -5.55,-5.95 0,-3.45 1.9,-5.9 5.45,-5.9 z"
         style="font-style:normal;font-variant:normal;font-weight:normal;font-stretch:normal;font-size:50px;line-height:179.99999523%;font-family:'Fira Sans';-inkscape-font-specification:'Fira Sans';text-align:start;text-anchor:start;fill:#476885;fill-opacity:1"
         id="path4488"
         inkscape:connector-curvature="0" />
      <path
         d="m -518.28625,280.71432 c -1.9,0 -3.2,1.35 -3.2,3.15 0,1.75 1.3,3.1 3.2,3.1 1.95,0 3.25,-1.35 3.25,-3.1 0,-1.8 -1.3,-3.15 -3.25,-3.15 z m 2.35,12.65 -4.6,0 0,26.35 4.6,0 0,-26.35 z"
         style="font-style:normal;font-variant:normal;font-weight:normal;font-stretch:normal;font-size:50px;line-height:179.99999523%;font-family:'Fira Sans';-inkscape-font-specification:'Fira Sans';text-align:start;text-anchor:start;fill:#476885;fill-opacity:1"
         id="path4490"
         inkscape:connector-curvature="0" />
      <path
         d="m -494.07375,292.76432 c -3.45,0 -6.25,1.8 -8.05,4.5 l -0.4,-3.9 -3.95,0 0,26.35 4.6,0 0,-18.7 c 1.75,-2.8 3.75,-4.65 6.7,-4.65 2.55,0 4.15,1.15 4.15,5.1 l 0,18.25 4.6,0 0,-18.9 c 0,-5 -2.8,-8.05 -7.65,-8.05 z"
         style="font-style:normal;font-variant:normal;font-weight:normal;font-stretch:normal;font-size:50px;line-height:179.99999523%;font-family:'Fira Sans';-inkscape-font-specification:'Fira Sans';text-align:start;text-anchor:start;fill:#476885;fill-opacity:1"
         id="path4492"
         inkscape:connector-curvature="0" />
      <path
         d="m -464.77688,292.76432 c -3.45,0 -6.25,1.8 -8.05,4.5 l -0.4,-3.9 -3.95,0 0,26.35 4.6,0 0,-18.7 c 1.75,-2.8 3.75,-4.65 6.7,-4.65 2.55,0 4.15,1.15 4.15,5.1 l 0,18.25 4.6,0 0,-18.9 c 0,-5 -2.8,-8.05 -7.65,-8.05 z"
         style="font-style:normal;font-variant:normal;font-weight:normal;font-stretch:normal;font-size:50px;line-height:179.99999523%;font-family:'Fira Sans';-inkscape-font-specification:'Fira Sans';text-align:start;text-anchor:start;fill:#476885;fill-opacity:1"
         id="path4494"
         inkscape:connector-curvature="0" />
      <path
         d="m -427.98,305.76432 c 0,-8.05 -3.75,-13 -10.85,-13 -6.8,0 -10.95,5.85 -10.95,14.05 0,8.35 4.3,13.5 11.65,13.5 3.65,0 6.6,-1.25 9.2,-3.3 l -2,-2.75 c -2.3,1.6 -4.25,2.3 -6.85,2.3 -3.8,0 -6.65,-2.35 -7.1,-8.45 l 16.8,0 c 0.05,-0.6 0.1,-1.45 0.1,-2.35 z m -4.55,-1.05 -12.35,0 c 0.35,-5.85 2.65,-8.3 6.15,-8.3 4.15,0 6.2,2.85 6.2,8 l 0,0.3 z"
         style="font-style:normal;font-variant:normal;font-weight:normal;font-stretch:normal;font-size:50px;line-height:179.99999523%;font-family:'Fira Sans';-inkscape-font-specification:'Fira Sans';text-align:start;text-anchor:start;fill:#476885;fill-opacity:1"
         id="path4496"
         inkscape:connector-curvature="0" />
      <path
         d="m -408.89094,292.76432 c -3.2,0 -5.65,2 -7.05,5.95 l -0.45,-5.35 -3.95,0 0,26.35 4.6,0 0,-15.05 c 1.1,-5.05 3,-7.4 6.3,-7.4 0.95,0 1.5,0.1 2.3,0.3 l 0.85,-4.5 c -0.8,-0.2 -1.75,-0.3 -2.6,-0.3 z"
         style="font-style:normal;font-variant:normal;font-weight:normal;font-stretch:normal;font-size:50px;line-height:179.99999523%;font-family:'Fira Sans';-inkscape-font-specification:'Fira Sans';text-align:start;text-anchor:start;fill:#476885;fill-opacity:1"
         id="path4498"
         inkscape:connector-curvature="0" />
      <path
         d="m -397.26594,282.06432 c -1.75,0 -3.25,1.4 -3.25,3.15 0,1 0.45,1.85 1.3,2.5 l -2,7.5 3,0 3.35,-7.1 c 0.65,-1.4 0.85,-2.1 0.85,-2.9 0,-1.75 -1.45,-3.15 -3.25,-3.15 z"
         style="font-style:normal;font-variant:normal;font-weight:normal;font-stretch:normal;font-size:50px;line-height:179.99999523%;font-family:'Fira Sans';-inkscape-font-specification:'Fira Sans';text-align:start;text-anchor:start;fill:#476885;fill-opacity:1"
         id="path4500"
         inkscape:connector-curvature="0" />
      <path
         d="m -379.89016,292.76432 c -5.45,0 -9.5,3.05 -9.5,7.25 0,3.7 2.25,6.15 7.95,7.65 5.1,1.35 6.4,2.35 6.4,4.95 0,2.5 -2.2,4 -5.65,4 -2.85,0 -5.3,-0.95 -7.4,-2.55 l -2.45,2.8 c 2.3,2 5.5,3.45 9.95,3.45 5.35,0 10.4,-2.5 10.4,-8 0,-4.6 -3.2,-6.8 -8.75,-8.2 -4.25,-1.1 -5.65,-2.1 -5.65,-4.25 0,-2.1 1.85,-3.45 4.85,-3.45 2.45,0 4.5,0.75 6.85,2.25 l 1.95,-2.9 c -2.5,-1.9 -5.25,-3 -8.95,-3 z"
         style="font-style:normal;font-variant:normal;font-weight:normal;font-stretch:normal;font-size:50px;line-height:179.99999523%;font-family:'Fira Sans';-inkscape-font-specification:'Fira Sans';text-align:start;text-anchor:start;fill:#476885;fill-opacity:1"
         id="path4502"
         inkscape:connector-curvature="0" />
      <path
         d="m -337.56907,284.66432 c -7.75,0 -14.85,6.2 -14.85,17.8 0,11.9 5.55,17.85 14.1,17.85 4.85,0 8.45,-1.2 11.6,-3.05 l 0,-16.65 -11.35,0 0.55,3.85 6.1,0 0,10.35 c -1.95,1.15 -4.25,1.6 -6.55,1.6 -6.05,0 -9.4,-4.05 -9.4,-13.95 0,-10.15 4.95,-13.9 9.9,-13.9 3.1,0 5.15,0.85 7.55,2.8 l 2.8,-2.9 c -2.95,-2.45 -5.8,-3.8 -10.45,-3.8 z"
         style="font-style:normal;font-variant:normal;font-weight:normal;font-stretch:normal;font-size:50px;line-height:179.99999523%;font-family:'Fira Sans';-inkscape-font-specification:'Fira Sans';text-align:start;text-anchor:start;fill:#476885;fill-opacity:1"
         id="path4504"
         inkscape:connector-curvature="0" />
      <path
         d="m -299.2761,293.36432 -4.6,0 0,18.8 c -1.6,2.65 -3.75,4.55 -6.6,4.55 -2.85,0 -4.05,-1.35 -4.05,-4.95 l 0,-18.4 -4.6,0 0,18.9 c 0,5.15 2.75,8.05 7.35,8.05 3.75,0 6.2,-1.5 8.2,-4.7 l 0.35,4.1 3.95,0 0,-26.35 z"
         style="font-style:normal;font-variant:normal;font-weight:normal;font-stretch:normal;font-size:50px;line-height:179.99999523%;font-family:'Fira Sans';-inkscape-font-specification:'Fira Sans';text-align:start;text-anchor:start;fill:#476885;fill-opacity:1"
         id="path4506"
         inkscape:connector-curvature="0" />
      <path
         d="m -287.52454,280.71432 c -1.9,0 -3.2,1.35 -3.2,3.15 0,1.75 1.3,3.1 3.2,3.1 1.95,0 3.25,-1.35 3.25,-3.1 0,-1.8 -1.3,-3.15 -3.25,-3.15 z m 2.35,12.65 -4.6,0 0,26.35 4.6,0 0,-26.35 z"
         style="font-style:normal;font-variant:normal;font-weight:normal;font-stretch:normal;font-size:50px;line-height:179.99999523%;font-family:'Fira Sans';-inkscape-font-specification:'Fira Sans';text-align:start;text-anchor:start;fill:#476885;fill-opacity:1"
         id="path4508"
         inkscape:connector-curvature="0" />
      <path
         d="m -259.91204,282.21432 0,13.8 c -1.75,-1.85 -4,-3.25 -7.1,-3.25 -6.45,0 -10.35,5.85 -10.35,13.9 0,8.2 3.55,13.65 9.95,13.65 3.25,0 5.9,-1.6 7.6,-4.25 l 0.45,3.65 4.05,0 0,-36.95 -4.6,-0.55 z m -6.5,34.45 c -3.8,0 -6,-3.15 -6,-10.1 0,-6.85 2.45,-10.15 6.4,-10.15 2.6,0 4.45,1.35 6.1,3.45 l 0,12.9 c -1.75,2.45 -3.55,3.9 -6.5,3.9 z"
         style="font-style:normal;font-variant:normal;font-weight:normal;font-stretch:normal;font-size:50px;line-height:179.99999523%;font-family:'Fira Sans';-inkscape-font-specification:'Fira Sans';text-align:start;text-anchor:start;fill:#476885;fill-opacity:1"
         id="path4510"
         inkscape:connector-curvature="0" />
      <path
         d="m -225.92922,305.76432 c 0,-8.05 -3.75,-13 -10.85,-13 -6.8,0 -10.95,5.85 -10.95,14.05 0,8.35 4.3,13.5 11.65,13.5 3.65,0 6.6,-1.25 9.2,-3.3 l -2,-2.75 c -2.3,1.6 -4.25,2.3 -6.85,2.3 -3.8,0 -6.65,-2.35 -7.1,-8.45 l 16.8,0 c 0.05,-0.6 0.1,-1.45 0.1,-2.35 z m -4.55,-1.05 -12.35,0 c 0.35,-5.85 2.65,-8.3 6.15,-8.3 4.15,0 6.2,2.85 6.2,8 l 0,0.3 z"
         style="font-style:normal;font-variant:normal;font-weight:normal;font-stretch:normal;font-size:50px;line-height:179.99999523%;font-family:'Fira Sans';-inkscape-font-specification:'Fira Sans';text-align:start;text-anchor:start;fill:#476885;fill-opacity:1"
         id="path4512"
         inkscape:connector-curvature="0" />
      <path
         d="m -634.7675,405.36432 c -1.3,0.8 -2.35,1.15 -3.5,1.15 -2.3,0 -3.15,-1.25 -3.15,-3.9 l 0,-15.7 5.75,0 0.5,-3.55 -6.25,0 0,-6.5 -4.6,0.55 0,5.95 -4.6,0 0,3.55 4.6,0 0,15.9 c 0,4.9 2.65,7.5 7.1,7.5 2.25,0 4.15,-0.6 5.9,-1.8 l -1.75,-3.15 z"
         style="font-style:normal;font-variant:normal;font-weight:normal;font-stretch:normal;font-size:50px;line-height:179.99999523%;font-family:'Fira Sans';-inkscape-font-specification:'Fira Sans';text-align:start;text-anchor:start;fill:#476885;fill-opacity:1"
         id="path4514"
         inkscape:connector-curvature="0" />
      <path
         d="m -618.83938,382.76432 c -7.5,0 -11.8,5.65 -11.8,13.8 0,8.35 4.25,13.75 11.75,13.75 7.45,0 11.75,-5.65 11.75,-13.8 0,-8.35 -4.2,-13.75 -11.7,-13.75 z m 0,3.7 c 4.35,0 6.75,3.2 6.75,10.05 0,6.9 -2.4,10.1 -6.8,10.1 -4.4,0 -6.8,-3.2 -6.8,-10.05 0,-6.9 2.45,-10.1 6.85,-10.1 z"
         style="font-style:normal;font-variant:normal;font-weight:normal;font-stretch:normal;font-size:50px;line-height:179.99999523%;font-family:'Fira Sans';-inkscape-font-specification:'Fira Sans';text-align:start;text-anchor:start;fill:#476885;fill-opacity:1"
         id="path4516"
         inkscape:connector-curvature="0" />
      <path
         d="m -577.20891,372.21432 c -6.4,0 -9.1,3.25 -9.1,7.7 l 0,3.45 -4.2,0 0,3.55 4.2,0 0,22.8 4.6,0 0,-22.8 10.1,0 0,22.8 4.6,0 0,-26.35 -14.7,0 0,-3.5 c 0,-2.5 0.95,-3.9 4.65,-3.9 2.05,0 3.9,0.45 5.55,1.25 l 1.6,-3.2 c -2.15,-1.1 -4.35,-1.8 -7.3,-1.8 z"
         style="font-style:normal;font-variant:normal;font-weight:normal;font-stretch:normal;font-size:50px;line-height:179.99999523%;font-family:'Fira Sans';-inkscape-font-specification:'Fira Sans';text-align:start;text-anchor:start;fill:#476885;fill-opacity:1"
         id="path4518"
         inkscape:connector-curvature="0" />
      <path
         d="m -545.14797,382.76432 c -3.45,0 -6.25,1.8 -8.05,4.5 l -0.4,-3.9 -3.95,0 0,26.35 4.6,0 0,-18.7 c 1.75,-2.8 3.75,-4.65 6.7,-4.65 2.55,0 4.15,1.15 4.15,5.1 l 0,18.25 4.6,0 0,-18.9 c 0,-5 -2.8,-8.05 -7.65,-8.05 z"
         style="font-style:normal;font-variant:normal;font-weight:normal;font-stretch:normal;font-size:50px;line-height:179.99999523%;font-family:'Fira Sans';-inkscape-font-specification:'Fira Sans';text-align:start;text-anchor:start;fill:#476885;fill-opacity:1"
         id="path4520"
         inkscape:connector-curvature="0" />
      <path
         d="m -512.4511,372.21432 0,13.8 c -1.75,-1.85 -4,-3.25 -7.1,-3.25 -6.45,0 -10.35,5.85 -10.35,13.9 0,8.2 3.55,13.65 9.95,13.65 3.25,0 5.9,-1.6 7.6,-4.25 l 0.45,3.65 4.05,0 0,-36.95 -4.6,-0.55 z m -6.5,34.45 c -3.8,0 -6,-3.15 -6,-10.1 0,-6.85 2.45,-10.15 6.4,-10.15 2.6,0 4.45,1.35 6.1,3.45 l 0,12.9 c -1.75,2.45 -3.55,3.9 -6.5,3.9 z"
         style="font-style:normal;font-variant:normal;font-weight:normal;font-stretch:normal;font-size:50px;line-height:179.99999523%;font-family:'Fira Sans';-inkscape-font-specification:'Fira Sans';text-align:start;text-anchor:start;fill:#476885;fill-opacity:1"
         id="path4522"
         inkscape:connector-curvature="0" />
      <path
         d="m -496.11829,370.71432 c -1.9,0 -3.2,1.35 -3.2,3.15 0,1.75 1.3,3.1 3.2,3.1 1.95,0 3.25,-1.35 3.25,-3.1 0,-1.8 -1.3,-3.15 -3.25,-3.15 z m 2.35,12.65 -4.6,0 0,26.35 4.6,0 0,-26.35 z"
         style="font-style:normal;font-variant:normal;font-weight:normal;font-stretch:normal;font-size:50px;line-height:179.99999523%;font-family:'Fira Sans';-inkscape-font-specification:'Fira Sans';text-align:start;text-anchor:start;fill:#476885;fill-opacity:1"
         id="path4524"
         inkscape:connector-curvature="0" />
      <path
         d="m -471.90579,382.76432 c -3.45,0 -6.25,1.8 -8.05,4.5 l -0.4,-3.9 -3.95,0 0,26.35 4.6,0 0,-18.7 c 1.75,-2.8 3.75,-4.65 6.7,-4.65 2.55,0 4.15,1.15 4.15,5.1 l 0,18.25 4.6,0 0,-18.9 c 0,-5 -2.8,-8.05 -7.65,-8.05 z"
         style="font-style:normal;font-variant:normal;font-weight:normal;font-stretch:normal;font-size:50px;line-height:179.99999523%;font-family:'Fira Sans';-inkscape-font-specification:'Fira Sans';text-align:start;text-anchor:start;fill:#476885;fill-opacity:1"
         id="path4526"
         inkscape:connector-curvature="0" />
      <path
         d="m -435.10891,380.41432 c -3.1,1.4 -5.5,2.5 -12.05,2.35 -5.8,0 -10.15,3.8 -10.15,9.2 0,3.4 1.4,5.7 4.45,7.3 -1.9,1.25 -2.9,2.95 -2.9,4.65 0,2.65 2.1,5 6.8,5 l 4.15,0 c 3.3,0 5.3,1.25 5.3,3.75 0,2.65 -2,4.1 -7.7,4.1 -5.8,0 -7.15,-1.4 -7.15,-4.4 l -4.15,0 c 0,5.35 2.7,8 11.3,8 8.15,0 12.35,-2.9 12.35,-8 0,-4.2 -3.6,-7.3 -9,-7.3 l -4.2,0 c -2.7,0 -3.45,-0.95 -3.45,-2.15 0,-0.95 0.55,-1.9 1.3,-2.45 1.1,0.35 2.15,0.5 3.35,0.5 6.3,0 10.05,-3.75 10.05,-8.95 0,-3.05 -1.55,-5.25 -4.65,-6.65 3,0 5.5,-0.1 7.7,-0.8 l -1.35,-4.15 z m -12.05,5.65 c 3.75,0 5.65,2 5.65,5.85 0,3.8 -1.95,6 -5.55,6 -3.6,0 -5.55,-2.45 -5.55,-5.95 0,-3.45 1.9,-5.9 5.45,-5.9 z"
         style="font-style:normal;font-variant:normal;font-weight:normal;font-stretch:normal;font-size:50px;line-height:179.99999523%;font-family:'Fira Sans';-inkscape-font-specification:'Fira Sans';text-align:start;text-anchor:start;fill:#476885;fill-opacity:1"
         id="path4528"
         inkscape:connector-curvature="0" />
      <path
         d="m -622.4675,465.26432 -4.8,0 0,23.05 c 0,5.35 -2.35,8 -7.3,8 -4.9,0 -7.25,-2.65 -7.25,-8 l 0,-23.05 -4.75,0 0,23.4 c 0,6.85 4.15,11.65 12,11.65 7.75,0 12.1,-4.8 12.1,-11.65 l 0,-23.4 z"
         style="font-style:normal;font-variant:normal;font-weight:normal;font-stretch:normal;font-size:50px;line-height:179.99999523%;font-family:'Fira Sans';-inkscape-font-specification:'Fira Sans';text-align:start;text-anchor:start;fill:#476885;fill-opacity:1"
         id="path4530"
         inkscape:connector-curvature="0" />
      <path
         d="m -606.06204,472.76432 c -5.45,0 -9.5,3.05 -9.5,7.25 0,3.7 2.25,6.15 7.95,7.65 5.1,1.35 6.4,2.35 6.4,4.95 0,2.5 -2.2,4 -5.65,4 -2.85,0 -5.3,-0.95 -7.4,-2.55 l -2.45,2.8 c 2.3,2 5.5,3.45 9.95,3.45 5.35,0 10.4,-2.5 10.4,-8 0,-4.6 -3.2,-6.8 -8.75,-8.2 -4.25,-1.1 -5.65,-2.1 -5.65,-4.25 0,-2.1 1.85,-3.45 4.85,-3.45 2.45,0 4.5,0.75 6.85,2.25 l 1.95,-2.9 c -2.5,-1.9 -5.25,-3 -8.95,-3 z"
         style="font-style:normal;font-variant:normal;font-weight:normal;font-stretch:normal;font-size:50px;line-height:179.99999523%;font-family:'Fira Sans';-inkscape-font-specification:'Fira Sans';text-align:start;text-anchor:start;fill:#476885;fill-opacity:1"
         id="path4532"
         inkscape:connector-curvature="0" />
      <path
         d="m -569.97219,485.76432 c 0,-8.05 -3.75,-13 -10.85,-13 -6.8,0 -10.95,5.85 -10.95,14.05 0,8.35 4.3,13.5 11.65,13.5 3.65,0 6.6,-1.25 9.2,-3.3 l -2,-2.75 c -2.3,1.6 -4.25,2.3 -6.85,2.3 -3.8,0 -6.65,-2.35 -7.1,-8.45 l 16.8,0 c 0.05,-0.6 0.1,-1.45 0.1,-2.35 z m -4.55,-1.05 -12.35,0 c 0.35,-5.85 2.65,-8.3 6.15,-8.3 4.15,0 6.2,2.85 6.2,8 l 0,0.3 z"
         style="font-style:normal;font-variant:normal;font-weight:normal;font-stretch:normal;font-size:50px;line-height:179.99999523%;font-family:'Fira Sans';-inkscape-font-specification:'Fira Sans';text-align:start;text-anchor:start;fill:#476885;fill-opacity:1"
         id="path4534"
         inkscape:connector-curvature="0" />
      <path
         d="m -550.88313,472.76432 c -3.2,0 -5.65,2 -7.05,5.95 l -0.45,-5.35 -3.95,0 0,26.35 4.6,0 0,-15.05 c 1.1,-5.05 3,-7.4 6.3,-7.4 0.95,0 1.5,0.1 2.3,0.3 l 0.85,-4.5 c -0.8,-0.2 -1.75,-0.3 -2.6,-0.3 z"
         style="font-style:normal;font-variant:normal;font-weight:normal;font-stretch:normal;font-size:50px;line-height:179.99999523%;font-family:'Fira Sans';-inkscape-font-specification:'Fira Sans';text-align:start;text-anchor:start;fill:#476885;fill-opacity:1"
         id="path4536"
         inkscape:connector-curvature="0" />
      <path
         d="m -505.31594,465.26432 -4.45,0 0,18.8 c 0,4.2 0.55,9.7 0.65,10.5 l -14.15,-29.3 -6.2,0 0,34.45 4.45,0 0,-15.8 c 0,-6.4 -0.4,-10.6 -0.65,-13.45 l 14,29.25 6.35,0 0,-34.45 z"
         style="font-style:normal;font-variant:normal;font-weight:normal;font-stretch:normal;font-size:50px;line-height:179.99999523%;font-family:'Fira Sans';-inkscape-font-specification:'Fira Sans';text-align:start;text-anchor:start;fill:#476885;fill-opacity:1"
         id="path4538"
         inkscape:connector-curvature="0" />
      <path
         d="m -475.63625,485.76432 c 0,-8.05 -3.75,-13 -10.85,-13 -6.8,0 -10.95,5.85 -10.95,14.05 0,8.35 4.3,13.5 11.65,13.5 3.65,0 6.6,-1.25 9.2,-3.3 l -2,-2.75 c -2.3,1.6 -4.25,2.3 -6.85,2.3 -3.8,0 -6.65,-2.35 -7.1,-8.45 l 16.8,0 c 0.05,-0.6 0.1,-1.45 0.1,-2.35 z m -4.55,-1.05 -12.35,0 c 0.35,-5.85 2.65,-8.3 6.15,-8.3 4.15,0 6.2,2.85 6.2,8 l 0,0.3 z"
         style="font-style:normal;font-variant:normal;font-weight:normal;font-stretch:normal;font-size:50px;line-height:179.99999523%;font-family:'Fira Sans';-inkscape-font-specification:'Fira Sans';text-align:start;text-anchor:start;fill:#476885;fill-opacity:1"
         id="path4540"
         inkscape:connector-curvature="0" />
      <path
         d="m -448.09719,485.76432 c 0,-8.05 -3.75,-13 -10.85,-13 -6.8,0 -10.95,5.85 -10.95,14.05 0,8.35 4.3,13.5 11.65,13.5 3.65,0 6.6,-1.25 9.2,-3.3 l -2,-2.75 c -2.3,1.6 -4.25,2.3 -6.85,2.3 -3.8,0 -6.65,-2.35 -7.1,-8.45 l 16.8,0 c 0.05,-0.6 0.1,-1.45 0.1,-2.35 z m -4.55,-1.05 -12.35,0 c 0.35,-5.85 2.65,-8.3 6.15,-8.3 4.15,0 6.2,2.85 6.2,8 l 0,0.3 z"
         style="font-style:normal;font-variant:normal;font-weight:normal;font-stretch:normal;font-size:50px;line-height:179.99999523%;font-family:'Fira Sans';-inkscape-font-specification:'Fira Sans';text-align:start;text-anchor:start;fill:#476885;fill-opacity:1"
         id="path4542"
         inkscape:connector-curvature="0" />
      <path
         d="m -424.65813,462.21432 0,13.8 c -1.75,-1.85 -4,-3.25 -7.1,-3.25 -6.45,0 -10.35,5.85 -10.35,13.9 0,8.2 3.55,13.65 9.95,13.65 3.25,0 5.9,-1.6 7.6,-4.25 l 0.45,3.65 4.05,0 0,-36.95 -4.6,-0.55 z m -6.5,34.45 c -3.8,0 -6,-3.15 -6,-10.1 0,-6.85 2.45,-10.15 6.4,-10.15 2.6,0 4.45,1.35 6.1,3.45 l 0,12.9 c -1.75,2.45 -3.55,3.9 -6.5,3.9 z"
         style="font-style:normal;font-variant:normal;font-weight:normal;font-stretch:normal;font-size:50px;line-height:179.99999523%;font-family:'Fira Sans';-inkscape-font-specification:'Fira Sans';text-align:start;text-anchor:start;fill:#476885;fill-opacity:1"
         id="path4544"
         inkscape:connector-curvature="0" />
      <path
         d="m -403.42532,472.76432 c -5.45,0 -9.5,3.05 -9.5,7.25 0,3.7 2.25,6.15 7.95,7.65 5.1,1.35 6.4,2.35 6.4,4.95 0,2.5 -2.2,4 -5.65,4 -2.85,0 -5.3,-0.95 -7.4,-2.55 l -2.45,2.8 c 2.3,2 5.5,3.45 9.95,3.45 5.35,0 10.4,-2.5 10.4,-8 0,-4.6 -3.2,-6.8 -8.75,-8.2 -4.25,-1.1 -5.65,-2.1 -5.65,-4.25 0,-2.1 1.85,-3.45 4.85,-3.45 2.45,0 4.5,0.75 6.85,2.25 l 1.95,-2.9 c -2.5,-1.9 -5.25,-3 -8.95,-3 z"
         style="font-style:normal;font-variant:normal;font-weight:normal;font-stretch:normal;font-size:50px;line-height:179.99999523%;font-family:'Fira Sans';-inkscape-font-specification:'Fira Sans';text-align:start;text-anchor:start;fill:#476885;fill-opacity:1"
         id="path4546"
         inkscape:connector-curvature="0" />
    </g>
    <g
       style="color:#000000;font-style:normal;font-variant:normal;font-weight:normal;font-stretch:normal;font-size:37.79666519px;line-height:125%;font-family:'Fira Sans';-inkscape-font-specification:'Fira Sans';text-indent:0;text-align:start;text-decoration:none;text-decoration-line:none;letter-spacing:0px;word-spacing:0px;text-transform:none;direction:ltr;block-progression:tb;writing-mode:lr-tb;baseline-shift:baseline;text-anchor:start;display:inline;overflow:visible;visibility:visible;fill:#535557;fill-opacity:1;fill-rule:nonzero;stroke:none;stroke-width:1px;stroke-linecap:butt;stroke-linejoin:miter;stroke-opacity:1;marker:none;enable-background:accumulate"
       id="text4454"
       transform="translate(714.28571,8.5714286)">
      <path
         d="m -638.94173,82.977476 -3.59068,0 0,22.262234 c 0,3.4773 -0.71814,4.98916 -4.15763,6.34984 l 0.94491,2.60797 c 4.19543,-1.32288 6.8034,-3.3639 6.8034,-8.80662 l 0,-22.413424 z"
         style="font-style:normal;font-variant:normal;font-weight:normal;font-stretch:normal;font-family:'Fira Sans';-inkscape-font-specification:'Fira Sans';fill:#535557;fill-opacity:1"
         id="path4459"
         inkscape:connector-curvature="0" />
      <path
         d="m -618.35436,104.37039 0,-9.108997 c 0,-4.157634 -2.1922,-6.614417 -6.99238,-6.614417 -2.23,0 -4.42221,0.45356 -6.87899,1.36068 l 0.86932,2.532377 c 2.04102,-0.68034 3.89306,-1.058307 5.36713,-1.058307 2.75915,0 4.15763,1.058307 4.15763,3.930853 l 0,1.47407 -3.06153,0 c -5.55611,0 -8.76883,2.305597 -8.76883,6.576621 0,3.55289 2.38119,6.00967 6.34984,6.00967 2.41899,0 4.5356,-0.90712 5.93408,-2.98594 0.60475,1.96543 1.88983,2.75916 3.89306,2.98594 l 0.79373,-2.41899 c -1.02051,-0.37796 -1.66306,-0.94491 -1.66306,-2.68356 z m -8.16408,2.49458 c -2.2678,0 -3.43949,-1.24729 -3.43949,-3.59068 0,-2.72136 1.85203,-4.082044 5.51831,-4.082044 l 2.60797,0 0,4.573394 c -1.1339,2.07882 -2.64577,3.09933 -4.68679,3.09933 z"
         style="font-style:normal;font-variant:normal;font-weight:normal;font-stretch:normal;font-family:'Fira Sans';-inkscape-font-specification:'Fira Sans';fill:#535557;fill-opacity:1"
         id="path4461"
         inkscape:connector-curvature="0" />
      <path
         d="m -601.80237,88.646976 c -2.60797,0 -4.72459,1.36068 -6.08527,3.4017 l -0.30237,-2.94814 -2.98594,0 0,19.918844 3.4773,0 0,-14.135954 c 1.32288,-2.116613 2.83475,-3.51509 5.06475,-3.51509 1.92763,0 3.13712,0.869323 3.13712,3.85526 l 0,13.795784 3.4773,0 0,-14.287141 c 0,-3.779666 -2.11662,-6.085263 -5.78289,-6.085263 z"
         style="font-style:normal;font-variant:normal;font-weight:normal;font-stretch:normal;font-family:'Fira Sans';-inkscape-font-specification:'Fira Sans';fill:#535557;fill-opacity:1"
         id="path4463"
         inkscape:connector-curvature="0" />
      <path
         d="m -573.35802,82.977476 -5.44272,0 0,26.041904 6.23645,0 c 5.6317,0 12.24612,-2.53238 12.24612,-13.153241 0,-10.809846 -6.38764,-12.888663 -13.03985,-12.888663 z m 0.79373,2.872547 c 4.15763,0 8.42866,1.209493 8.42866,10.016116 0,8.579841 -4.08204,10.318491 -8.16408,10.318491 l -2.91035,0 0,-20.334607 2.64577,0 z"
         style="font-style:normal;font-variant:normal;font-weight:normal;font-stretch:normal;font-family:'Fira Sans';-inkscape-font-specification:'Fira Sans';fill:#535557;fill-opacity:1"
         id="path4465"
         inkscape:connector-curvature="0" />
      <path
         d="m -552.92774,79.53798 c -1.43627,0 -2.41898,1.02051 -2.41898,2.38119 0,1.322883 0.98271,2.343393 2.41898,2.343393 1.47407,0 2.45679,-1.02051 2.45679,-2.343393 0,-1.36068 -0.98272,-2.38119 -2.45679,-2.38119 z m 1.77645,9.562556 -3.4773,0 0,19.918844 3.4773,0 0,-19.918844 z"
         style="font-style:normal;font-variant:normal;font-weight:normal;font-stretch:normal;font-family:'Fira Sans';-inkscape-font-specification:'Fira Sans';fill:#535557;fill-opacity:1"
         id="path4467"
         inkscape:connector-curvature="0" />
      <path
         d="m -535.26725,105.73107 c -0.98271,0.60475 -1.77644,0.86932 -2.64576,0.86932 -1.73865,0 -2.38119,-0.94491 -2.38119,-2.94814 l 0,-11.868151 4.34661,0 0.37797,-2.683563 -4.72458,0 0,-4.913566 -3.4773,0.415763 0,4.497803 -3.47729,0 0,2.683563 3.47729,0 0,12.019341 c 0,3.70407 2.00323,5.6695 5.36713,5.6695 1.70085,0 3.13712,-0.45356 4.46001,-1.36068 l -1.32289,-2.38119 z"
         style="font-style:normal;font-variant:normal;font-weight:normal;font-stretch:normal;font-family:'Fira Sans';-inkscape-font-specification:'Fira Sans';fill:#535557;fill-opacity:1"
         id="path4469"
         inkscape:connector-curvature="0" />
      <path
         d="m -521.61025,105.73107 c -0.98271,0.60475 -1.77644,0.86932 -2.64576,0.86932 -1.73865,0 -2.38119,-0.94491 -2.38119,-2.94814 l 0,-11.868151 4.34661,0 0.37797,-2.683563 -4.72458,0 0,-4.913566 -3.4773,0.415763 0,4.497803 -3.47729,0 0,2.683563 3.47729,0 0,12.019341 c 0,3.70407 2.00323,5.6695 5.36713,5.6695 1.70085,0 3.13712,-0.45356 4.46001,-1.36068 l -1.32289,-2.38119 z"
         style="font-style:normal;font-variant:normal;font-weight:normal;font-stretch:normal;font-family:'Fira Sans';-inkscape-font-specification:'Fira Sans';fill:#535557;fill-opacity:1"
         id="path4471"
         inkscape:connector-curvature="0" />
      <path
         d="m -508.02884,88.646976 c -2.41899,0 -4.27103,1.511867 -5.32933,4.497803 l -0.34017,-4.044243 -2.98594,0 0,19.918844 3.47729,0 0,-11.376798 c 0.83153,-3.817463 2.2678,-5.593906 4.76238,-5.593906 0.71814,0 1.1339,0.07559 1.73865,0.22678 l 0.64254,-3.4017 c -0.60474,-0.151187 -1.32288,-0.22678 -1.96542,-0.22678 z"
         style="font-style:normal;font-variant:normal;font-weight:normal;font-stretch:normal;font-family:'Fira Sans';-inkscape-font-specification:'Fira Sans';fill:#535557;fill-opacity:1"
         id="path4473"
         inkscape:connector-curvature="0" />
      <path
         d="m -500.36675,79.53798 c -1.43627,0 -2.41898,1.02051 -2.41898,2.38119 0,1.322883 0.98271,2.343393 2.41898,2.343393 1.47407,0 2.45679,-1.02051 2.45679,-2.343393 0,-1.36068 -0.98272,-2.38119 -2.45679,-2.38119 z m 1.77645,9.562556 -3.4773,0 0,19.918844 3.4773,0 0,-19.918844 z"
         style="font-style:normal;font-variant:normal;font-weight:normal;font-stretch:normal;font-family:'Fira Sans';-inkscape-font-specification:'Fira Sans';fill:#535557;fill-opacity:1"
         id="path4475"
         inkscape:connector-curvature="0" />
      <path
         d="m -484.18033,88.646976 c -5.40492,0 -8.69323,4.233227 -8.69323,10.583066 0,6.425438 3.32611,10.242898 8.69323,10.242898 2.3056,0 4.30882,-0.75593 6.08527,-2.19221 l -1.58746,-2.2678 c -1.51187,0.98272 -2.68357,1.51187 -4.34662,1.51187 -3.13712,0 -5.10255,-2.15441 -5.10255,-7.370351 0,-5.178143 1.96543,-7.634926 5.10255,-7.634926 1.66305,0 2.91034,0.491356 4.27102,1.47407 l 1.66306,-2.192207 c -1.85204,-1.549663 -3.74187,-2.15441 -6.08527,-2.15441 z"
         style="font-style:normal;font-variant:normal;font-weight:normal;font-stretch:normal;font-family:'Fira Sans';-inkscape-font-specification:'Fira Sans';fill:#535557;fill-opacity:1"
         id="path4477"
         inkscape:connector-curvature="0" />
      <path
         d="m -463.97742,88.646976 c -2.49458,0 -4.46001,1.24729 -5.89628,3.212717 l 0,-11.11222 -3.4773,0.377967 0,27.89394 3.4773,0 0,-14.173751 c 1.32288,-2.078816 2.87254,-3.477293 5.02695,-3.477293 1.88984,0 3.17492,0.869323 3.17492,3.85526 l 0,13.795784 3.4773,0 0,-14.287141 c 0,-3.74187 -2.15441,-6.085263 -5.78289,-6.085263 z"
         style="font-style:normal;font-variant:normal;font-weight:normal;font-stretch:normal;font-family:'Fira Sans';-inkscape-font-specification:'Fira Sans';fill:#535557;fill-opacity:1"
         id="path4479"
         inkscape:connector-curvature="0" />
    </g>
  </g>
</svg>
